<svg xmlns="http://www.w3.org/2000/svg" xmlns:xlink="http://www.w3.org/1999/xlink" viewBox="0 0 3710 3710"><defs><style>.cls-1{mask:url(#mask);filter:url(#luminosity-noclip-2);}.cls-2{mix-blend-mode:multiply;fill:url(#linear-gradient);}.cls-3{fill:url(#linear-gradient-2);}.cls-4{fill:#bdd0fb;}.cls-10,.cls-5,.cls-7,.cls-8{fill:#fff;}.cls-5{opacity:0.5;}.cls-6{fill:#91b3fa;}.cls-7{opacity:0.6;}.cls-9{opacity:0.9;}.cls-10{fill-rule:evenodd;}.cls-11{fill:url(#linear-gradient-3);}.cls-12{fill:url(#linear-gradient-4);}.cls-13{fill:url(#linear-gradient-5);}.cls-14{fill:url(#linear-gradient-6);}.cls-15{fill:url(#linear-gradient-7);}.cls-16{fill:url(#linear-gradient-8);}.cls-17{fill:url(#linear-gradient-9);}.cls-18{fill:url(#linear-gradient-10);}.cls-19{mask:url(#mask-2);}.cls-20{fill:url(#linear-gradient-11);}.cls-21{fill:url(#linear-gradient-12);}.cls-22{fill:url(#linear-gradient-13);}.cls-23{fill:url(#linear-gradient-14);}.cls-24{fill:url(#linear-gradient-15);}.cls-25{fill:url(#linear-gradient-16);}.cls-26{fill:url(#linear-gradient-17);}.cls-27{fill:url(#linear-gradient-18);}.cls-28{fill:url(#linear-gradient-19);}.cls-29{fill:url(#linear-gradient-20);}.cls-30{fill:url(#linear-gradient-21);}.cls-31{fill:url(#linear-gradient-22);}.cls-32{fill:url(#linear-gradient-23);}.cls-33{fill:url(#linear-gradient-24);}.cls-34{fill:url(#linear-gradient-25);}.cls-35{fill:url(#linear-gradient-26);}.cls-36{fill:url(#linear-gradient-27);}.cls-37{fill:url(#linear-gradient-28);}.cls-38{fill:url(#linear-gradient-29);}.cls-39{fill:url(#linear-gradient-30);}.cls-40{filter:url(#luminosity-noclip);}</style><filter id="luminosity-noclip" x="1561.23" y="-10047" width="312.13" height="32766" filterUnits="userSpaceOnUse" color-interpolation-filters="sRGB"><feFlood flood-color="#fff" result="bg"/><feBlend in="SourceGraphic" in2="bg"/></filter><mask id="mask" x="1561.23" y="-10047" width="312.13" height="32766" maskUnits="userSpaceOnUse"><g class="cls-40"/></mask><linearGradient id="linear-gradient" x1="1561.23" y1="2673.1" x2="1873.36" y2="2673.1" gradientUnits="userSpaceOnUse"><stop offset="0" stop-color="#fff"/><stop offset="1"/></linearGradient><linearGradient id="linear-gradient-2" x1="3573.5" y1="4006.29" x2="1133.63" y2="976.13" gradientUnits="userSpaceOnUse"><stop offset="0" stop-color="#dae3fe"/><stop offset="1" stop-color="#e9effd"/></linearGradient><linearGradient id="linear-gradient-3" x1="1687.01" y1="3200.26" x2="1710.42" y2="2351" gradientUnits="userSpaceOnUse"><stop offset="0" stop-color="#4f52ff"/><stop offset="1" stop-color="#4042e2"/></linearGradient><linearGradient id="linear-gradient-4" x1="1326.76" y1="2094.34" x2="1315.75" y2="1827.36" gradientUnits="userSpaceOnUse"><stop offset="0" stop-color="#09005d"/><stop offset="1" stop-color="#1a0f91"/></linearGradient><linearGradient id="linear-gradient-5" x1="1312.83" y1="1693.5" x2="1367.87" y2="2458.67" xlink:href="#linear-gradient-4"/><linearGradient id="linear-gradient-6" x1="2070.59" y1="2063.67" x2="2059.58" y2="1796.68" xlink:href="#linear-gradient-4"/><linearGradient id="linear-gradient-7" x1="2054.65" y1="1640.13" x2="2109.7" y2="2405.3" xlink:href="#linear-gradient-4"/><linearGradient id="linear-gradient-8" x1="1749.1" y1="1267.51" x2="1674.79" y2="1812.5" xlink:href="#linear-gradient-3"/><linearGradient id="linear-gradient-9" x1="1771.52" y1="1691.94" x2="1499.03" y2="4235.18" xlink:href="#linear-gradient-3"/><linearGradient id="linear-gradient-10" x1="1512.25" y1="2673.22" x2="1922.35" y2="2673.22" xlink:href="#linear-gradient-4"/><filter id="luminosity-noclip-2" x="1561.23" y="2538.96" width="312.13" height="268.27" filterUnits="userSpaceOnUse" color-interpolation-filters="sRGB"><feFlood flood-color="#fff" result="bg"/><feBlend in="SourceGraphic" in2="bg"/></filter><mask id="mask-2" x="1561.23" y="2538.96" width="312.13" height="268.27" maskUnits="userSpaceOnUse"><g class="cls-1"><path class="cls-2" d="M1810.79,2807.24H1629.21a46.91,46.91,0,0,1-46.66-41.22l-21-174.73a46.85,46.85,0,0,1,46.66-52.32h218.14a46.86,46.86,0,0,1,46.81,50.91L1857.6,2764.6A46.91,46.91,0,0,1,1810.79,2807.24Z"/></g></mask><linearGradient id="linear-gradient-11" x1="887.08" y1="3895.51" x2="1804.83" y2="2531.42" xlink:href="#linear-gradient-4"/><linearGradient id="linear-gradient-12" x1="-660.02" y1="3837.78" x2="-643.3" y2="4255.72" gradientTransform="matrix(-1, 0, 0, 1, 2012.38, 0)" xlink:href="#linear-gradient-4"/><linearGradient id="linear-gradient-13" x1="-682.98" y1="3243.34" x2="-682.98" y2="2310.5" gradientTransform="matrix(-1, 0, 0, 1, 2012.38, 0)" xlink:href="#linear-gradient-4"/><linearGradient id="linear-gradient-14" x1="-1142.33" y1="3857.07" x2="-1125.61" y2="4275.01" gradientTransform="matrix(-1, 0, 0, 1, 2012.38, 0)" xlink:href="#linear-gradient-4"/><linearGradient id="linear-gradient-15" x1="-1168.99" y1="3243.34" x2="-1168.99" y2="2310.49" gradientTransform="matrix(-1, 0, 0, 1, 2012.38, 0)" xlink:href="#linear-gradient-4"/><linearGradient id="linear-gradient-16" x1="-1175.97" y1="3115.08" x2="-1103.21" y2="3115.08" gradientTransform="matrix(-1, 0, 0, 1, 2012.38, 0)" gradientUnits="userSpaceOnUse"><stop offset="0" stop-color="#febbba"/><stop offset="1" stop-color="#ff928e"/></linearGradient><linearGradient id="linear-gradient-17" x1="-790.53" y1="3110.32" x2="-729.89" y2="3110.32" xlink:href="#linear-gradient-16"/><linearGradient id="linear-gradient-18" x1="3187.56" y1="1510.88" x2="2895.12" y2="2732.63" xlink:href="#linear-gradient-4"/><linearGradient id="linear-gradient-19" x1="-639.74" y1="2178.04" x2="-887.93" y2="2498.91" gradientTransform="matrix(-1, 0, 0, 1, 2012.38, 0)" gradientUnits="userSpaceOnUse"><stop offset="0" stop-color="#cb236d"/><stop offset="1" stop-color="#4c246d"/></linearGradient><linearGradient id="linear-gradient-20" x1="2479.6" y1="5500.84" x2="2831.5" y2="5976.38" gradientTransform="matrix(-0.99, -0.11, -0.11, 0.99, 2450.67, 67.67)" xlink:href="#linear-gradient-4"/><linearGradient id="linear-gradient-21" x1="-386.54" y1="1483.07" x2="-358.18" y2="1308.17" gradientTransform="matrix(-0.99, -0.11, -0.11, 0.99, 2450.67, 67.67)" xlink:href="#linear-gradient-16"/><linearGradient id="linear-gradient-22" x1="-293.01" y1="1196.43" x2="-486.24" y2="1344.28" gradientTransform="matrix(-0.99, -0.11, -0.11, 0.99, 2450.67, 67.67)" xlink:href="#linear-gradient-16"/><linearGradient id="linear-gradient-23" x1="-428.77" y1="1079.71" x2="-253.78" y2="1305" gradientTransform="matrix(-0.99, -0.11, -0.11, 0.99, 2450.67, 67.67)" xlink:href="#linear-gradient-4"/><linearGradient id="linear-gradient-24" x1="-316.98" y1="1165.11" x2="-510.21" y2="1312.96" gradientTransform="matrix(-0.99, -0.11, -0.11, 0.99, 2450.67, 67.67)" xlink:href="#linear-gradient-16"/><linearGradient id="linear-gradient-25" x1="4592.36" y1="4364.92" x2="3344.73" y2="6002.83" gradientTransform="translate(-2853.69 5014.25) rotate(-79.31)" gradientUnits="userSpaceOnUse"><stop offset="0" stop-color="#ff928e"/><stop offset="1" stop-color="#fe7062"/></linearGradient><linearGradient id="linear-gradient-26" x1="4227.9" y1="4897.76" x2="3406.77" y2="4938.28" gradientTransform="translate(-2853.69 5014.25) rotate(-79.31)" xlink:href="#linear-gradient-2"/><linearGradient id="linear-gradient-27" x1="2817.86" y1="2004.95" x2="1904.78" y2="3025.03" gradientTransform="matrix(1, 0, 0, 1, 0, 0)" xlink:href="#linear-gradient-25"/><linearGradient id="linear-gradient-28" x1="2524.69" y1="1742.52" x2="1611.61" y2="2762.6" gradientTransform="matrix(1, 0, 0, 1, 0, 0)" xlink:href="#linear-gradient-25"/><linearGradient id="linear-gradient-29" x1="2289.92" y1="5641.68" x2="2641.84" y2="6117.25" gradientTransform="matrix(-0.99, -0.11, -0.11, 0.99, 2450.67, 67.67)" xlink:href="#linear-gradient-4"/><linearGradient id="linear-gradient-30" x1="3061.45" y1="2024.54" x2="3536.23" y2="1268.9" gradientTransform="matrix(1, 0, 0, 1, 0, 0)" xlink:href="#linear-gradient-16"/></defs><title>briefcaseJabatan</title><g id="Illustration"><path class="cls-3" d="M2902.27,2811.3c-56,59-109.07,97-151,127.11-492.47,353.36-1075.2,250.35-1199.05,225.2-182.88-37.14-536.39-108.94-792-409.5C373.62,2299.4,433.83,1583,733.76,1110.1c54.86-86.5,344.66-566.61,933.66-643.6,356.46-46.6,772,47.38,1072.88,299.48C3371.93,1295.17,3327,2364.2,2902.27,2811.3Z"/><path class="cls-4" d="M480.55,1260.75c-4.3-8.43,6.82-17.47,16.07-13.12,93.87,44.22,328.63,188,363.42,531.67,43.65,431.15,181.55,558.48,329.48,620.46,0,0-182.56-1.37-328.61-129.07C502.33,1957.16,557,1410.65,480.55,1260.75Z"/><path class="cls-5" d="M572.1,1376.26c21.2,44,41.36,88.37,59.6,133.45q27.76,67.46,50.64,136.55c15,46.09,29,92.49,40.73,139.47,11.94,46.92,21.54,94.38,31,142.07,9.74,47.6,19.25,95.61,34.45,142.58s37,92.56,68,132.78c7.75,10,15.74,19.95,24.36,29.32,8.41,9.53,17.33,18.7,26.44,27.72a524.46,524.46,0,0,0,59.41,50.16c42.61,30.65,90.95,55.25,142,73.56,5.38,1.93,11.82-.45,14.39-5.32s.37-10.17-4.8-12.19h0c-12.26-4.77-24.43-9.67-36.28-15-6-2.6-11.8-5.43-17.68-8.17-5.74-2.93-11.63-5.66-17.25-8.76a523.13,523.13,0,0,1-170.57-143.63,424.33,424.33,0,0,1-38.47-61,467.15,467.15,0,0,1-27.6-66.19c-15.17-45.49-25-92.92-35.17-140.43s-20.85-95.16-33.74-142.21Q732,1745.63,721,1710.72c-3.59-11.66-7.45-23.23-11.28-34.81s-8-23.06-12.14-34.54q-25-68.83-54.9-135.86c-20.19-44.55-41.76-88.54-65.29-131.6a3,3,0,0,0-3.84-1A2.56,2.56,0,0,0,572.1,1376.26Z"/><path class="cls-6" d="M909,1976.93a20.29,20.29,0,0,1-33.59,2.44c-49.14-62.49-172.1-251.73-111.68-519.43,51-226.06,57.21-353.49,56-411.53-.25-12.27,15.31-17.74,22.8-8C925.16,1147.67,1166,1522.52,909,1976.93Z"/><path class="cls-5" d="M889.7,1973.8a5.63,5.63,0,0,1-7.77-3.88c-.79-3.43-78.17-346.87-21.42-664.4a5.63,5.63,0,1,1,11.08,2c-56.33,315.22,20.53,656.49,21.31,659.9A5.63,5.63,0,0,1,889.7,1973.8Z"/><path class="cls-6" d="M2521.86,2884.78H985.34V687c0-77.3,58.71-139.21,129.51-136.56L2565.93,572.1c74,1.1,132.88,68,130.87,148.76l-50.63,2031.9C2644.35,2826.25,2589.23,2884.78,2521.86,2884.78Z"/><path class="cls-7" d="M2494.52,2551.37H1009.21V723c0-64.31,56.76-115.81,125.2-113.61l1402.72,18c71.54.92,128.45,56.6,126.51,123.76L2614.7,2441.54C2612.93,2502.67,2559.64,2551.37,2494.52,2551.37Z"/><path class="cls-6" d="M1011.24,753.36l1657.41,12.95V686.7c-2.22-33.12-34.83-77.42-85.51-77.42L1086.64,590.51c-35.67-.4-77.82,49.58-77.12,87.9Z"/><circle class="cls-7" cx="1090.74" cy="669.24" r="23.15"/><circle class="cls-7" cx="1183.35" cy="671.91" r="23.15"/><circle class="cls-7" cx="1272.2" cy="671.91" r="23.15"/><rect class="cls-6" x="1101.1" y="837.8" width="604.11" height="380.17" rx="7.59" ry="7.59"/><path class="cls-8" d="M1659.16,1202.48h-512a27.32,27.32,0,0,1-27.29-27.29V881.27A27.32,27.32,0,0,1,1147.14,854h512a27.32,27.32,0,0,1,27.29,27.29V1175.2A27.32,27.32,0,0,1,1659.16,1202.48Zm-512-345.13a24,24,0,0,0-23.92,23.92V1175.2a23.94,23.94,0,0,0,23.92,23.92h512a23.94,23.94,0,0,0,23.92-23.92V881.27a24,24,0,0,0-23.92-23.92Z"/><path class="cls-8" d="M1204.1,1159.48h303.64a12.22,12.22,0,0,0,10.53-18.42L1398.07,936.71a12.22,12.22,0,0,0-21.65,1.12l-58,127.18a12.22,12.22,0,0,1-19.38,3.93l-23.48-21.52a12.22,12.22,0,0,0-18.29,2l-63.16,90.82A12.22,12.22,0,0,0,1204.1,1159.48Z"/><circle class="cls-8" cx="1503.62" cy="930.54" r="43.65"/><rect class="cls-6" x="1101.1" y="1285.22" width="604.11" height="380.17" rx="9.24" ry="9.24"/><path class="cls-8" d="M1218.66,1606.73H1522.3a12.22,12.22,0,0,0,10.53-18.42L1412.63,1384a12.22,12.22,0,0,0-21.65,1.12l-58,127.18a12.22,12.22,0,0,1-19.38,3.93l-23.48-21.52a12.22,12.22,0,0,0-18.29,2l-63.16,90.82A12.22,12.22,0,0,0,1218.66,1606.73Z"/><circle class="cls-8" cx="1518.18" cy="1377.78" r="43.65"/><path class="cls-8" d="M1658.73,1652.81h-512a27.32,27.32,0,0,1-27.29-27.29V1331.6a27.32,27.32,0,0,1,27.29-27.29h512A27.32,27.32,0,0,1,1686,1331.6v293.93A27.32,27.32,0,0,1,1658.73,1652.81Zm-512-345.13a23.94,23.94,0,0,0-23.92,23.92v293.93a23.94,23.94,0,0,0,23.92,23.92h512a23.94,23.94,0,0,0,23.92-23.92V1331.6a23.94,23.94,0,0,0-23.92-23.92Z"/><rect class="cls-6" x="1851.76" y="837.8" width="711.14" height="447.53" rx="7.59" ry="7.59"/><path class="cls-8" d="M2513.23,1266.8h-611.8a27.32,27.32,0,0,1-27.29-27.29V884.44a27.32,27.32,0,0,1,27.29-27.29h611.8a27.32,27.32,0,0,1,27.29,27.29v355.07A27.32,27.32,0,0,1,2513.23,1266.8Zm-611.8-406.28a23.94,23.94,0,0,0-23.92,23.92v355.07a23.94,23.94,0,0,0,23.92,23.92h611.8a23.94,23.94,0,0,0,23.92-23.92V884.44a23.94,23.94,0,0,0-23.92-23.92Z"/><g class="cls-9"><path class="cls-8" d="M2202.89,1186.06a126.27,126.27,0,1,1,126.27-126.27A126.42,126.42,0,0,1,2202.89,1186.06Zm0-231.39A105.11,105.11,0,1,0,2308,1059.79,105.23,105.23,0,0,0,2202.89,954.68Z"/><path class="cls-10" d="M2163.33,1108.42v-90.78a12.51,12.51,0,0,1,18.9-10.76l76.5,45.39a12.51,12.51,0,0,1,0,21.53l-76.5,45.39A12.51,12.51,0,0,1,2163.33,1108.42Z"/></g><rect class="cls-6" x="1847.32" y="1361.17" width="711.14" height="447.53" rx="7.59" ry="7.59"/><path class="cls-8" d="M2508.79,1790.17H1897a27.32,27.32,0,0,1-27.29-27.29V1407.8a27.32,27.32,0,0,1,27.29-27.29h611.8a27.32,27.32,0,0,1,27.29,27.29v355.07A27.32,27.32,0,0,1,2508.79,1790.17ZM1897,1383.89a23.94,23.94,0,0,0-23.92,23.92v355.07a23.94,23.94,0,0,0,23.92,23.92h611.8a23.94,23.94,0,0,0,23.92-23.92V1407.8a23.94,23.94,0,0,0-23.92-23.92Z"/><g class="cls-9"><path class="cls-8" d="M2198.45,1709.43a126.27,126.27,0,1,1,126.27-126.27A126.42,126.42,0,0,1,2198.45,1709.43Zm0-231.39a105.11,105.11,0,1,0,105.11,105.11A105.23,105.23,0,0,0,2198.45,1478Z"/><path class="cls-10" d="M2158.9,1631.79V1541a12.51,12.51,0,0,1,18.9-10.76l76.5,45.39a12.51,12.51,0,0,1,0,21.53l-76.5,45.39A12.51,12.51,0,0,1,2158.9,1631.79Z"/></g><path class="cls-11" d="M752.84,2423.57,773,3049.51c3.51,109.15,93.08,196,202.8,196.65L2474.68,3255c73.33.43,135.8-52.85,146.5-125.05,23.44-158.07,53.3-440.91,19.67-706.38Z"/><path class="cls-8" d="M2421.59,3216.54h0l-10.92-.06a1.82,1.82,0,0,1,0-3.64h0l10.92.06a1.82,1.82,0,0,1,0,3.64Zm25.47-.17a1.82,1.82,0,0,1-.11-3.64c3.57-.22,7.17-.58,10.72-1.08a1.82,1.82,0,0,1,.5,3.6c-3.64.51-7.34.88-11,1.11Zm-61.86,0h0l-10.92-.07a1.82,1.82,0,0,1,0-3.64h0l10.92.07a1.82,1.82,0,0,1,0,3.64Zm-36.39-.21h0l-10.92-.06a1.82,1.82,0,0,1,0-3.64h0l10.92.06a1.82,1.82,0,0,1,0,3.64Zm-36.39-.22h0l-10.92-.06a1.82,1.82,0,0,1-1.81-1.83,2,2,0,0,1,1.83-1.81l10.92.06a1.82,1.82,0,0,1,0,3.64Zm-36.39-.21h0l-10.92-.07a1.82,1.82,0,0,1,0-3.64h0l10.92.07a1.82,1.82,0,0,1,0,3.64Zm-36.39-.22h0l-10.92-.06a1.82,1.82,0,0,1-1.81-1.83,1.9,1.9,0,0,1,1.83-1.81l10.92.06a1.82,1.82,0,0,1,0,3.64Zm-36.39-.22h0l-10.92-.06a1.82,1.82,0,0,1,0-3.64h0l10.92.06a1.82,1.82,0,0,1,0,3.64Zm-36.39-.22h0l-10.92-.06a1.82,1.82,0,0,1,0-3.64h0l10.92.06a1.82,1.82,0,0,1,0,3.64Zm-36.39-.21h0l-10.92-.06a1.82,1.82,0,0,1,0-3.64h0l10.92.06a1.82,1.82,0,0,1,0,3.64Zm-36.39-.21h0l-10.92-.06a1.82,1.82,0,0,1,0-3.64h0l10.92.06a1.82,1.82,0,0,1,0,3.64Zm-36.39-.22h0l-10.92-.06a1.82,1.82,0,0,1,0-3.64h0l10.92.06a1.82,1.82,0,0,1,0,3.64Zm-36.39-.21h0l-10.92-.07a1.82,1.82,0,0,1,0-3.64h0l10.92.07a1.82,1.82,0,0,1,0,3.64Zm-36.39-.22h0l-10.92-.06a1.82,1.82,0,0,1,0-3.64h0l10.92.06a1.82,1.82,0,0,1,0,3.64Zm-36.39-.22h0l-10.92-.06a1.82,1.82,0,0,1,0-3.64h0l10.92.06a1.82,1.82,0,0,1,0,3.64Zm-36.39-.21h0l-10.92-.07a1.82,1.82,0,0,1,0-3.64h0l10.92.07a1.82,1.82,0,0,1,0,3.64Zm-36.39-.22h0l-10.92-.06a1.82,1.82,0,0,1-1.81-1.83,2,2,0,0,1,1.83-1.81l10.92.06a1.82,1.82,0,0,1,0,3.64Zm-36.39-.21h0l-10.92-.06a1.82,1.82,0,0,1,0-3.64h0l10.92.06a1.82,1.82,0,0,1,0,3.64Zm-36.39-.22h0l-10.92-.06a1.82,1.82,0,0,1-1.81-1.83,1.92,1.92,0,0,1,1.83-1.81l10.92.06a1.82,1.82,0,0,1,0,3.64Zm-36.39-.21h0l-10.92-.06a1.82,1.82,0,0,1,0-3.64h0l10.92.06a1.82,1.82,0,0,1,0,3.64Zm-36.39-.22h0l-10.92-.06a1.82,1.82,0,0,1-1.81-1.83,1.87,1.87,0,0,1,1.83-1.81l10.92.06a1.82,1.82,0,0,1,0,3.64Zm-36.39-.22h0l-10.92-.06a1.82,1.82,0,0,1,0-3.64h0l10.92.06a1.82,1.82,0,0,1,0,3.64Zm-36.39-.21h0l-10.92-.07a1.82,1.82,0,0,1,0-3.64h0l10.92.07a1.82,1.82,0,0,1,0,3.64Zm-36.39-.22h0l-10.92-.06a1.82,1.82,0,0,1,0-3.64h0l10.92.06a1.82,1.82,0,0,1,0,3.64Zm-36.39-.21h0l-10.92-.06a1.82,1.82,0,0,1,0-3.64h0l10.92.06a1.82,1.82,0,0,1,0,3.64Zm-36.39-.22h0l-10.92-.06a1.82,1.82,0,0,1,0-3.64h0l10.92.06a1.82,1.82,0,0,1,0,3.64Zm-36.39-.21h0l-10.92-.06a1.82,1.82,0,0,1,0-3.64h0l10.92.06a1.82,1.82,0,0,1,0,3.64Zm-36.39-.22h0l-10.92-.06a1.82,1.82,0,0,1,0-3.64h0l10.92.06a1.82,1.82,0,0,1,0,3.64Zm-36.39-.22h0l-10.92-.06a1.82,1.82,0,0,1,0-3.64h0l10.92.06a1.82,1.82,0,0,1,0,3.64Zm-36.39-.21h0l-10.92-.07a1.82,1.82,0,0,1,0-3.64h0l10.92.07a1.82,1.82,0,0,1,0,3.64Zm-36.39-.22h0l-10.92-.06a1.82,1.82,0,0,1-1.81-1.83,2,2,0,0,1,1.83-1.81l10.92.06a1.82,1.82,0,0,1,0,3.64Zm-36.39-.21h0l-10.92-.06a1.82,1.82,0,0,1,0-3.64h0l10.92.06a1.82,1.82,0,0,1,0,3.64Zm-36.39-.21h0l-10.92-.07a1.82,1.82,0,0,1-1.81-1.83,1.89,1.89,0,0,1,1.83-1.81l10.92.07a1.82,1.82,0,0,1,0,3.64Zm-36.39-.22h0l-10.92-.06a1.82,1.82,0,0,1,0-3.64h0l10.92.06a1.82,1.82,0,0,1,0,3.64Zm1225.71-.19a1.82,1.82,0,0,1-.57-3.55c3.4-1.13,6.79-2.4,10.09-3.79a1.82,1.82,0,1,1,1.41,3.35c-3.38,1.43-6.87,2.74-10.35,3.89A1.84,1.84,0,0,1,2482.68,3209.48Zm-1262.1,0h0l-10.92-.06a1.82,1.82,0,0,1-1.81-1.83,1.84,1.84,0,0,1,1.83-1.81l10.92.06a1.82,1.82,0,0,1,0,3.64Zm-36.39-.22h0l-10.92-.06a1.82,1.82,0,0,1,0-3.64h0l10.92.06a1.82,1.82,0,0,1,0,3.64Zm-36.39-.21h0l-10.92-.06a1.82,1.82,0,0,1,0-3.64h0l10.92.06a1.82,1.82,0,0,1,0,3.64Zm-36.39-.22h0l-10.92-.06a1.82,1.82,0,0,1,0-3.64h0l10.92.06a1.82,1.82,0,0,1,0,3.64Zm-36.39-.21h0l-10.92-.06a1.82,1.82,0,0,1,0-3.64h0l10.92.06a1.82,1.82,0,0,1,0,3.64Zm-36.39-.21h0l-10.92-.07a1.82,1.82,0,0,1,0-3.64h0l10.92.07a1.82,1.82,0,0,1,0,3.64Zm-36.39-.41h-.09c-3.64-.18-7.33-.47-11-.86a1.82,1.82,0,0,1-1.62-2,1.8,1.8,0,0,1,2-1.62c3.58.38,7.2.66,10.78.84a1.82,1.82,0,0,1-.09,3.64Zm-36-5.18a1.86,1.86,0,0,1-.43,0c-3.55-.85-7.13-1.82-10.63-2.88a1.82,1.82,0,0,1,1.05-3.48c3.44,1,6.95,2,10.43,2.83a1.82,1.82,0,0,1-.42,3.59Zm1549.09-9.13a1.82,1.82,0,0,1-1-3.34c3-2,6-4.07,8.78-6.25a1.82,1.82,0,1,1,2.22,2.88c-2.89,2.24-5.92,4.4-9,6.42A1.81,1.81,0,0,1,2515.35,3193.68ZM931.89,3191a1.79,1.79,0,0,1-.75-.16c-3.32-1.5-6.65-3.12-9.89-4.81a1.82,1.82,0,0,1,1.68-3.23c3.19,1.66,6.45,3.25,9.71,4.72a1.82,1.82,0,0,1-.75,3.48Zm-31.55-18a1.81,1.81,0,0,1-1-.33c-3-2.1-6-4.31-8.83-6.57a1.82,1.82,0,1,1,2.25-2.86c2.82,2.22,5.73,4.39,8.67,6.45a1.82,1.82,0,0,1-1,3.31Zm1642.52-3a1.82,1.82,0,0,1-1.35-3c2.38-2.66,4.7-5.45,6.87-8.29a1.82,1.82,0,1,1,2.89,2.21c-2.23,2.92-4.61,5.79-7.06,8.51A1.82,1.82,0,0,1,2542.87,3170ZM872.69,3149.5a1.82,1.82,0,0,1-1.3-.55c-2.55-2.62-5.07-5.34-7.47-8.1a1.82,1.82,0,0,1,2.74-2.39c2.36,2.71,4.82,5.38,7.33,8a1.82,1.82,0,0,1-1.3,3.09Zm1690.69-9.4a1.79,1.79,0,0,1-.82-.2,1.82,1.82,0,0,1-.8-2.44c1.62-3.19,3.12-6.48,4.49-9.78a1.82,1.82,0,0,1,3.37,1.39c-1.4,3.39-2.95,6.77-4.61,10A1.82,1.82,0,0,1,2563.37,3140.09ZM849.86,3121.22a1.82,1.82,0,0,1-1.52-.82c-2-3.06-4-6.21-5.83-9.36a1.82,1.82,0,1,1,3.14-1.83c1.81,3.09,3.73,6.18,5.72,9.19a1.82,1.82,0,0,1-1.52,2.82Zm1725.54-15.35a1.82,1.82,0,0,1-1.78-2.19c.56-2.67,1.05-5.41,1.46-8.14l.37-2.51a1.82,1.82,0,0,1,3.6.53l-.37,2.52c-.42,2.8-.92,5.61-1.5,8.35A1.82,1.82,0,0,1,2575.4,3105.87ZM832.73,3089.16a1.82,1.82,0,0,1-1.68-1.12c-1.41-3.37-2.74-6.84-4-10.3a1.82,1.82,0,0,1,3.43-1.21c1.2,3.4,2.51,6.8,3.89,10.11a1.82,1.82,0,0,1-1.68,2.52Zm1748.13-19.27-.25,0a1.82,1.82,0,0,1-1.55-2.05q.74-5.33,1.48-10.81a1.82,1.82,0,1,1,3.61.49q-.74,5.49-1.49,10.82A1.82,1.82,0,0,1,2580.87,3069.89ZM821.95,3054.42a1.82,1.82,0,0,1-1.78-1.45c-.75-3.59-1.4-7.24-1.94-10.84a1.82,1.82,0,1,1,3.6-.54c.53,3.54,1.17,7.12,1.91,10.64a1.82,1.82,0,0,1-1.78,2.19Zm1763.72-20.61h-.23a1.82,1.82,0,0,1-1.58-2l1.36-10.83a1.82,1.82,0,0,1,3.61.45l-1.36,10.84A1.82,1.82,0,0,1,2585.67,3033.81ZM817.89,3018.32a1.82,1.82,0,0,1-1.82-1.76l-.35-10.91a1.82,1.82,0,0,1,1.76-1.88,1.78,1.78,0,0,1,1.88,1.76l.35,10.91a1.82,1.82,0,0,1-1.76,1.88Zm1772.18-20.65h-.21a1.82,1.82,0,0,1-1.6-2q.62-5.37,1.24-10.84a1.84,1.84,0,0,1,2-1.61,1.82,1.82,0,0,1,1.61,2q-.62,5.48-1.24,10.86A1.82,1.82,0,0,1,2590.07,2997.67ZM816.72,2981.94a1.82,1.82,0,0,1-1.82-1.76l-.35-10.91a1.82,1.82,0,0,1,3.64-.12l.35,10.91a1.82,1.82,0,0,1-1.76,1.88ZM2594,2961.49h-.19a1.82,1.82,0,0,1-1.62-2q.56-5.39,1.11-10.86a1.82,1.82,0,1,1,3.62.37q-.55,5.48-1.12,10.87A1.82,1.82,0,0,1,2594,2961.49Zm-1778.5-15.92a1.82,1.82,0,0,1-1.82-1.76l-.35-10.91a1.82,1.82,0,0,1,3.64-.12l.35,10.91a1.82,1.82,0,0,1-1.76,1.88Zm1782.07-20.31h-.17a1.82,1.82,0,0,1-1.64-2q.5-5.4,1-10.87a1.82,1.82,0,0,1,3.63.32q-.49,5.47-1,10.88A1.82,1.82,0,0,1,2597.62,2925.26ZM814.38,2909.19a1.82,1.82,0,0,1-1.82-1.76l-.35-10.91a1.82,1.82,0,0,1,3.64-.12l.35,10.91a1.82,1.82,0,0,1-1.76,1.88ZM2600.76,2889h-.15a1.82,1.82,0,0,1-1.67-2l.86-10.88a1.8,1.8,0,0,1,2-1.67,1.82,1.82,0,0,1,1.67,2l-.86,10.89A1.82,1.82,0,0,1,2600.76,2889ZM813.21,2872.81a1.82,1.82,0,0,1-1.82-1.76l-.35-10.91a1.82,1.82,0,0,1,3.64-.12l.35,10.91a1.82,1.82,0,0,1-1.76,1.88Zm1790.26-20.12h-.13a1.82,1.82,0,0,1-1.69-1.94l.73-10.89a1.82,1.82,0,1,1,3.63.24l-.73,10.9A1.82,1.82,0,0,1,2603.47,2852.69ZM812,2836.44a1.82,1.82,0,0,1-1.82-1.76l-.35-10.91a1.82,1.82,0,0,1,1.76-1.88,1.79,1.79,0,0,1,1.88,1.76l.35,10.91a1.82,1.82,0,0,1-1.76,1.88Zm1793.69-20.07h-.1a1.82,1.82,0,0,1-1.71-1.92q.3-5.43.59-10.9a1.82,1.82,0,1,1,3.64.19q-.29,5.48-.59,10.91A1.82,1.82,0,0,1,2605.73,2816.36Zm-1794.86-16.3a1.82,1.82,0,0,1-1.82-1.76l-.35-10.91a1.82,1.82,0,0,1,3.64-.12l.35,10.91a1.82,1.82,0,0,1-1.76,1.88ZM2607.53,2780h-.08a1.82,1.82,0,0,1-1.74-1.9q.23-5.44.45-10.9a1.82,1.82,0,1,1,3.64.14q-.21,5.47-.45,10.92A1.82,1.82,0,0,1,2607.53,2780ZM809.7,2763.69a1.82,1.82,0,0,1-1.82-1.76l-.35-10.91a1.82,1.82,0,0,1,1.76-1.88,1.84,1.84,0,0,1,1.88,1.76l.35,10.91a1.82,1.82,0,0,1-1.76,1.88Zm1799.15-20.06h-.05a1.82,1.82,0,0,1-1.77-1.87q.16-5.44.3-10.91a1.82,1.82,0,0,1,3.64.09q-.14,5.47-.3,10.92A1.82,1.82,0,0,1,2608.85,2743.63ZM808.53,2727.31a1.82,1.82,0,0,1-1.82-1.76l-.35-10.91a1.82,1.82,0,0,1,1.76-1.88,1.84,1.84,0,0,1,1.88,1.76l.35,10.91a1.82,1.82,0,0,1-1.76,1.88Zm1801.13-20.07h0a1.82,1.82,0,0,1-1.79-1.85q.08-5.44.14-10.91a1.93,1.93,0,0,1,1.84-1.8,1.82,1.82,0,0,1,1.8,1.84q-.06,5.47-.14,10.93A1.82,1.82,0,0,1,2609.66,2707.24Zm-1802.3-16.3a1.82,1.82,0,0,1-1.82-1.76l-.35-10.91a1.82,1.82,0,0,1,1.76-1.88,1.84,1.84,0,0,1,1.88,1.76l.35,10.91a1.82,1.82,0,0,1-1.76,1.88Zm1802.58-20.09a1.82,1.82,0,0,1-1.82-1.82v-.88q0-5,0-10a1.82,1.82,0,0,1,1.81-1.83h0a1.82,1.82,0,0,1,1.82,1.81q0,5,0,10v.88A1.82,1.82,0,0,1,2609.94,2670.84ZM806.19,2654.56a1.82,1.82,0,0,1-1.82-1.76l-.35-10.91a1.82,1.82,0,0,1,1.76-1.88,1.76,1.76,0,0,1,1.88,1.76l.35,10.91a1.82,1.82,0,0,1-1.76,1.88Zm1803.48-20.1a1.82,1.82,0,0,1-1.82-1.79q-.08-5.44-.19-10.9a1.82,1.82,0,0,1,1.78-1.86,1.88,1.88,0,0,1,1.86,1.78q.11,5.47.19,10.92a1.82,1.82,0,0,1-1.79,1.85ZM805,2618.18a1.82,1.82,0,0,1-1.82-1.76l-.35-10.91a1.82,1.82,0,0,1,1.76-1.88,1.84,1.84,0,0,1,1.88,1.76l.35,10.91a1.82,1.82,0,0,1-1.76,1.88Zm1803.8-20.1a1.82,1.82,0,0,1-1.82-1.76q-.17-5.45-.37-10.9a1.82,1.82,0,0,1,1.75-1.89,1.78,1.78,0,0,1,1.89,1.75q.2,5.46.38,10.92a1.82,1.82,0,0,1-1.76,1.88Zm-1805-16.28A1.82,1.82,0,0,1,802,2580l-.35-10.91a1.82,1.82,0,1,1,3.64-.12l.35,10.91a1.82,1.82,0,0,1-1.76,1.88Zm1803.5-20.08a1.82,1.82,0,0,1-1.82-1.73q-.27-5.45-.56-10.89a1.82,1.82,0,0,1,1.72-1.92,1.84,1.84,0,0,1,1.92,1.72q.3,5.46.57,10.91a1.82,1.82,0,0,1-1.73,1.91Zm-1804.67-16.3a1.82,1.82,0,0,1-1.82-1.76l-.35-10.91a1.82,1.82,0,1,1,3.64-.12l.35,10.91a1.82,1.82,0,0,1-1.76,1.88Zm1802.54-20a1.82,1.82,0,0,1-1.81-1.7q-.37-5.44-.77-10.88a1.82,1.82,0,0,1,1.68-1.95,1.8,1.8,0,0,1,1.95,1.68q.4,5.45.77,10.9a1.82,1.82,0,0,1-1.69,1.94ZM801.51,2509.05a1.82,1.82,0,0,1-1.82-1.76l-.35-10.91a1.82,1.82,0,0,1,1.76-1.88,1.79,1.79,0,0,1,1.88,1.76l.35,10.91a1.82,1.82,0,0,1-1.76,1.88Zm1800.89-19.94a1.82,1.82,0,0,1-1.81-1.66q-.48-5.43-1-10.86a1.82,1.82,0,1,1,3.62-.34q.51,5.44,1,10.88a1.82,1.82,0,0,1-1.65,2ZM800.34,2472.68a1.82,1.82,0,0,1-1.82-1.76l-.35-10.91a1.82,1.82,0,0,1,1.76-1.88,1.85,1.85,0,0,1,1.88,1.76l.35,10.91a1.82,1.82,0,0,1-1.76,1.88Zm1798.5-19.79a1.82,1.82,0,0,1-1.81-1.62q-.59-5.42-1.22-10.84a1.82,1.82,0,1,1,3.61-.42q.63,5.43,1.22,10.87a1.82,1.82,0,0,1-1.61,2ZM799.17,2436.3a1.82,1.82,0,0,1-1.82-1.76l-.41-12.79h6.6a1.82,1.82,0,1,1,0,3.64H800.7l.29,9a1.82,1.82,0,0,1-1.76,1.88Zm1787.72-10.91H2576a1.82,1.82,0,0,1,0-3.64h10.92a1.82,1.82,0,0,1,0,3.64Zm-36.39,0h-10.92a1.82,1.82,0,0,1,0-3.64h10.92a1.82,1.82,0,0,1,0,3.64Zm-36.39,0h-10.92a1.82,1.82,0,1,1,0-3.64h10.92a1.82,1.82,0,1,1,0,3.64Zm-36.39,0h-10.92a1.82,1.82,0,0,1,0-3.64h10.92a1.82,1.82,0,0,1,0,3.64Zm-36.39,0H2430.4a1.82,1.82,0,1,1,0-3.64h10.92a1.82,1.82,0,1,1,0,3.64Zm-36.39,0H2394a1.82,1.82,0,1,1,0-3.64h10.92a1.82,1.82,0,1,1,0,3.64Zm-36.39,0h-10.92a1.82,1.82,0,0,1,0-3.64h10.92a1.82,1.82,0,0,1,0,3.64Zm-36.39,0h-10.92a1.82,1.82,0,1,1,0-3.64h10.92a1.82,1.82,0,1,1,0,3.64Zm-36.39,0h-10.92a1.82,1.82,0,0,1,0-3.64h10.92a1.82,1.82,0,0,1,0,3.64Zm-36.39,0h-10.92a1.82,1.82,0,0,1,0-3.64h10.92a1.82,1.82,0,0,1,0,3.64Zm-36.39,0H2212a1.82,1.82,0,1,1,0-3.64h10.92a1.82,1.82,0,1,1,0,3.64Zm-36.39,0h-10.92a1.82,1.82,0,0,1,0-3.64h10.92a1.82,1.82,0,0,1,0,3.64Zm-36.39,0h-10.92a1.82,1.82,0,0,1,0-3.64h10.92a1.82,1.82,0,0,1,0,3.64Zm-36.39,0h-10.92a1.82,1.82,0,1,1,0-3.64h10.92a1.82,1.82,0,1,1,0,3.64Zm-36.39,0h-10.92a1.82,1.82,0,0,1,0-3.64h10.92a1.82,1.82,0,0,1,0,3.64Zm-36.39,0h-10.92a1.82,1.82,0,0,1,0-3.64H2041a1.82,1.82,0,0,1,0,3.64Zm-36.39,0h-10.92a1.82,1.82,0,1,1,0-3.64h10.92a1.82,1.82,0,1,1,0,3.64Zm-36.39,0h-10.92a1.82,1.82,0,0,1,0-3.64h10.92a1.82,1.82,0,0,1,0,3.64Zm-36.39,0h-10.92a1.82,1.82,0,1,1,0-3.64h10.92a1.82,1.82,0,1,1,0,3.64Zm-36.39,0h-10.92a1.82,1.82,0,1,1,0-3.64h10.92a1.82,1.82,0,1,1,0,3.64Zm-36.39,0h-10.92a1.82,1.82,0,0,1,0-3.64H1859a1.82,1.82,0,0,1,0,3.64Zm-36.39,0h-10.92a1.82,1.82,0,1,1,0-3.64h10.92a1.82,1.82,0,1,1,0,3.64Zm-36.39,0h-10.92a1.82,1.82,0,0,1,0-3.64h10.92a1.82,1.82,0,0,1,0,3.64Zm-36.39,0H1738.9a1.82,1.82,0,0,1,0-3.64h10.92a1.82,1.82,0,0,1,0,3.64Zm-36.39,0H1702.5a1.82,1.82,0,1,1,0-3.64h10.92a1.82,1.82,0,1,1,0,3.64Zm-36.39,0h-10.92a1.82,1.82,0,0,1,0-3.64H1677a1.82,1.82,0,0,1,0,3.64Zm-36.39,0h-10.92a1.82,1.82,0,0,1,0-3.64h10.92a1.82,1.82,0,0,1,0,3.64Zm-36.39,0h-10.92a1.82,1.82,0,1,1,0-3.64h10.92a1.82,1.82,0,1,1,0,3.64Zm-36.39,0h-10.92a1.82,1.82,0,0,1,0-3.64h10.92a1.82,1.82,0,0,1,0,3.64Zm-36.39,0h-10.92a1.82,1.82,0,0,1,0-3.64h10.92a1.82,1.82,0,1,1,0,3.64Zm-36.39,0h-10.92a1.82,1.82,0,1,1,0-3.64h10.92a1.82,1.82,0,1,1,0,3.64Zm-36.39,0h-10.92a1.82,1.82,0,0,1,0-3.64h10.92a1.82,1.82,0,0,1,0,3.64Zm-36.39,0h-10.92a1.82,1.82,0,1,1,0-3.64h10.92a1.82,1.82,0,1,1,0,3.64Zm-36.39,0h-10.92a1.82,1.82,0,1,1,0-3.64h10.92a1.82,1.82,0,0,1,0,3.64Zm-36.39,0h-10.92a1.82,1.82,0,0,1,0-3.64h10.92a1.82,1.82,0,0,1,0,3.64Zm-36.39,0h-10.92a1.82,1.82,0,1,1,0-3.64h10.92a1.82,1.82,0,1,1,0,3.64Zm-36.39,0h-10.92a1.82,1.82,0,0,1,0-3.64h10.92a1.82,1.82,0,0,1,0,3.64Zm-36.39,0h-10.92a1.82,1.82,0,0,1,0-3.64h10.92a1.82,1.82,0,0,1,0,3.64Zm-36.39,0H1193a1.82,1.82,0,1,1,0-3.64h10.92a1.82,1.82,0,1,1,0,3.64Zm-36.39,0h-10.92a1.82,1.82,0,0,1,0-3.64h10.92a1.82,1.82,0,0,1,0,3.64Zm-36.39,0h-10.92a1.82,1.82,0,0,1,0-3.64h10.92a1.82,1.82,0,0,1,0,3.64Zm-36.39,0h-10.92a1.82,1.82,0,1,1,0-3.64h10.92a1.82,1.82,0,1,1,0,3.64Zm-36.39,0h-10.92a1.82,1.82,0,0,1,0-3.64h10.92a1.82,1.82,0,0,1,0,3.64Zm-36.39,0H1011a1.82,1.82,0,1,1,0-3.64h10.92a1.82,1.82,0,1,1,0,3.64Zm-36.39,0H974.61a1.82,1.82,0,1,1,0-3.64h10.92a1.82,1.82,0,1,1,0,3.64Zm-36.39,0H938.21a1.82,1.82,0,0,1,0-3.64h10.92a1.82,1.82,0,0,1,0,3.64Zm-36.39,0H901.82a1.82,1.82,0,1,1,0-3.64h10.92a1.82,1.82,0,1,1,0,3.64Zm-36.39,0H865.42a1.82,1.82,0,0,1,0-3.64h10.92a1.82,1.82,0,0,1,0,3.64Zm-36.39,0H829a1.82,1.82,0,0,1,0-3.64h10.92a1.82,1.82,0,0,1,0,3.64Z"/><path class="cls-12" d="M1192.12,1969.17l4.51-48.27a37.11,37.11,0,0,1,28.15-21.67c46.7-7.43,162.51-20.5,218.28,21.17l8.33,56.1Z"/><path class="cls-13" d="M1338,1922.72a67,67,0,0,1-32.31,0,29.19,29.19,0,0,1-22.27-28.27V1743.25h76.93v151A29.3,29.3,0,0,1,1338,1922.72Z"/><path class="cls-14" d="M1937.21,1969.17l4.51-48.27a37.11,37.11,0,0,1,28.15-21.67c46.7-7.43,162.51-20.5,218.28,21.17l8.33,56.1Z"/><path class="cls-15" d="M2083.08,1922.72a67,67,0,0,1-32.31,0,29.18,29.18,0,0,1-22.27-28.27V1727.32h76.93v167A29.3,29.3,0,0,1,2083.08,1922.72Z"/><path class="cls-16" d="M1275.6,1780.3l827.29-27.39a39.88,39.88,0,0,0,38.1-32.74c4.53-25.9,8.53-64.67,2.57-104.86-6.77-45.71-46.09-79.66-92.49-80.76-154.33-3.67-547.22-3.56-763.77,82.1a75.62,75.62,0,0,0-45.69,52.47c-5.53,22.74-9.21,53.1-2,84A35.61,35.61,0,0,0,1275.6,1780.3Z"/><path class="cls-6" d="M1261.28,1737.3a3.64,3.64,0,0,1-3.62-3.27c-.13-1.31-3.14-32.41,5-62.35a69,69,0,0,1,47-47.74c46.09-13.52,134.16-36.51,206.11-38.53a3.64,3.64,0,0,1,.2,7.28c-71.14,2-158.52,24.82-204.27,38.24a61.63,61.63,0,0,0-42,42.66c-7.74,28.6-4.77,59.41-4.74,59.71a3.64,3.64,0,0,1-3.26,4Z"/><path class="cls-17" d="M808.28,1950.36c267.27-3.42,1423.48-15.57,1759.33,25a68.38,68.38,0,0,1,58.78,53c19.85,89.72,59.77,298.14,55,504.73-.64,28.11-21.26,51.84-49,57.09l-766.64,145H1593.45L776.59,2572.76a63.87,63.87,0,0,1-51.51-59.3c-5.31-103.94-13.61-347.81,14.5-504.79A70.68,70.68,0,0,1,808.28,1950.36Z"/><path class="cls-8" d="M1859.47,2670.89h-10.92a1.82,1.82,0,1,1,0-3.64h10.92a1.82,1.82,0,1,1,0,3.64Zm-36.39,0h-10.92a1.82,1.82,0,0,1,0-3.64h10.92a1.82,1.82,0,0,1,0,3.64Zm-36.39,0h-10.92a1.82,1.82,0,0,1,0-3.64h10.92a1.82,1.82,0,1,1,0,3.64Zm-36.39,0h-10.92a1.82,1.82,0,1,1,0-3.64h10.92a1.82,1.82,0,1,1,0,3.64Zm-36.39,0H1703a1.82,1.82,0,0,1,0-3.64h10.92a1.82,1.82,0,0,1,0,3.64Zm-36.39,0h-10.92a1.82,1.82,0,1,1,0-3.64h10.92a1.82,1.82,0,1,1,0,3.64Zm-36.39,0h-10.92a1.82,1.82,0,1,1,0-3.64h10.92a1.82,1.82,0,0,1,0,3.64Zm-36.39,0H1600l-11.06-2.16a1.82,1.82,0,0,1,.71-3.57l10.71,2.13,4.4,0a1.82,1.82,0,0,1,0,3.64Zm279.8-4.72a1.82,1.82,0,0,1-.34-3.61l10.73-2a1.82,1.82,0,1,1,.68,3.58l-10.73,2A1.84,1.84,0,0,1,1884.5,2666.17Zm-320.25-2.38a1.78,1.78,0,0,1-.36,0l-10.71-2.13a1.82,1.82,0,0,1-1.43-2.14,1.8,1.8,0,0,1,2.14-1.43l10.71,2.13a1.82,1.82,0,0,1-.35,3.6Zm356-4.39a1.82,1.82,0,0,1-.34-3.61l10.73-2a1.82,1.82,0,0,1,.68,3.58l-10.73,2A1.86,1.86,0,0,1,1920.26,2659.41Zm-391.7-2.71a1.75,1.75,0,0,1-.36,0l-10.71-2.13a1.82,1.82,0,0,1,.71-3.57l10.71,2.13a1.82,1.82,0,0,1-.35,3.6Zm427.46-4.06a1.82,1.82,0,0,1-.34-3.61l10.73-2a1.82,1.82,0,0,1,.68,3.58l-10.73,2A1.86,1.86,0,0,1,1956,2652.64Zm-463.16-3a1.75,1.75,0,0,1-.36,0l-10.71-2.13a1.82,1.82,0,0,1-1.43-2.14,1.8,1.8,0,0,1,2.14-1.43l10.71,2.13a1.82,1.82,0,0,1-.35,3.6Zm498.92-3.73a1.82,1.82,0,0,1-.34-3.61l10.73-2a1.82,1.82,0,0,1,.68,3.58l-10.73,2A1.87,1.87,0,0,1,1991.78,2645.88Zm-534.62-3.37a1.75,1.75,0,0,1-.36,0l-10.71-2.13a1.82,1.82,0,0,1,.71-3.57l10.71,2.13a1.82,1.82,0,0,1-.35,3.6Zm570.38-3.4a1.82,1.82,0,0,1-.34-3.61l10.73-2a1.82,1.82,0,1,1,.68,3.58l-10.73,2A1.84,1.84,0,0,1,2027.54,2639.11Zm-606.07-3.7a1.75,1.75,0,0,1-.36,0l-10.71-2.13a1.82,1.82,0,0,1,.71-3.57l10.71,2.13a1.82,1.82,0,0,1-.35,3.6Zm641.83-3.07a1.82,1.82,0,0,1-.34-3.61l10.73-2a1.82,1.82,0,1,1,.68,3.58l-10.73,2A1.83,1.83,0,0,1,2063.31,2632.35Zm-677.53-4a1.77,1.77,0,0,1-.36,0l-10.71-2.13a1.82,1.82,0,0,1,.71-3.57l10.71,2.13a1.82,1.82,0,0,1-.35,3.6Zm713.29-2.74a1.82,1.82,0,0,1-.34-3.61l10.73-2a1.82,1.82,0,0,1,.68,3.58l-10.73,2A1.83,1.83,0,0,1,2099.07,2625.58Zm-749-4.36a1.78,1.78,0,0,1-.36,0l-10.71-2.13a1.82,1.82,0,0,1,.71-3.57l10.71,2.13a1.82,1.82,0,0,1-.35,3.6Zm784.75-2.4a1.82,1.82,0,0,1-.34-3.61l10.73-2a1.82,1.82,0,1,1,.68,3.58l-10.73,2A1.83,1.83,0,0,1,2134.83,2618.82Zm-820.45-4.69a1.77,1.77,0,0,1-.36,0l-10.71-2.13a1.82,1.82,0,1,1,.71-3.57l10.71,2.13a1.82,1.82,0,0,1-.35,3.6Zm856.21-2.08a1.82,1.82,0,0,1-.34-3.61l10.73-2a1.82,1.82,0,0,1,.68,3.58l-10.73,2A1.85,1.85,0,0,1,2170.59,2612.05Zm-891.9-5a1.77,1.77,0,0,1-.36,0l-10.71-2.13a1.82,1.82,0,1,1,.71-3.57l10.71,2.13a1.82,1.82,0,0,1-.35,3.6Zm927.66-1.74a1.82,1.82,0,0,1-.34-3.61l10.73-2a1.82,1.82,0,1,1,.68,3.58l-10.73,2A1.86,1.86,0,0,1,2206.35,2605.29ZM1243,2599.93a1.78,1.78,0,0,1-.36,0l-10.71-2.13a1.82,1.82,0,1,1,.71-3.57l10.71,2.13a1.82,1.82,0,0,1-.35,3.6Zm999.12-1.41a1.82,1.82,0,0,1-.34-3.61l10.73-2a1.82,1.82,0,1,1,.68,3.58l-10.73,2A1.86,1.86,0,0,1,2242.11,2598.52Zm-1034.82-5.68a1.78,1.78,0,0,1-.36,0l-10.71-2.13a1.82,1.82,0,1,1,.71-3.57l10.71,2.13a1.82,1.82,0,0,1-.35,3.6Zm1070.58-1.08a1.82,1.82,0,0,1-.34-3.61l10.73-2a1.82,1.82,0,0,1,.68,3.58l-10.73,2A1.83,1.83,0,0,1,2277.87,2591.75Zm-1106.27-6a1.78,1.78,0,0,1-.36,0l-10.71-2.13a1.82,1.82,0,0,1-1.43-2.14,1.8,1.8,0,0,1,2.14-1.43l10.71,2.13a1.82,1.82,0,0,1-.35,3.6Zm1142-.75a1.82,1.82,0,0,1-.34-3.61l10.73-2a1.82,1.82,0,1,1,.68,3.58l-10.73,2A1.83,1.83,0,0,1,2313.63,2585Zm-1177.73-6.34a1.75,1.75,0,0,1-.36,0l-10.71-2.13a1.82,1.82,0,1,1,.71-3.57l10.71,2.13a1.82,1.82,0,0,1-.35,3.6Zm1213.49-.42a1.82,1.82,0,0,1-.34-3.61l10.73-2a1.82,1.82,0,0,1,.68,3.58l-10.73,2A1.83,1.83,0,0,1,2349.39,2578.22Zm-1249.19-6.67a1.75,1.75,0,0,1-.36,0l-10.71-2.13a1.82,1.82,0,0,1,.71-3.57l10.71,2.13a1.82,1.82,0,0,1-.35,3.6Zm1284.95-.09a1.82,1.82,0,0,1-.34-3.61l10.73-2a1.82,1.82,0,0,1,.68,3.58l-10.73,2A1.83,1.83,0,0,1,2385.15,2571.46Zm35.76-6.77a1.82,1.82,0,0,1-.34-3.61l10.73-2a1.82,1.82,0,1,1,.68,3.58l-10.73,2A1.84,1.84,0,0,1,2420.91,2564.69Zm-1356.41-.24a1.75,1.75,0,0,1-.36,0l-10.71-2.13a1.82,1.82,0,1,1,.71-3.57l10.71,2.13a1.82,1.82,0,0,1-.35,3.6Zm1392.17-6.53a1.82,1.82,0,0,1-.34-3.61l10.73-2a1.82,1.82,0,1,1,.68,3.58l-10.73,2A1.86,1.86,0,0,1,2456.67,2557.93Zm-1427.86-.57a1.75,1.75,0,0,1-.36,0l-10.71-2.13a1.82,1.82,0,0,1,.71-3.57l10.71,2.13a1.82,1.82,0,0,1-.35,3.6Zm1463.62-6.2a1.82,1.82,0,0,1-.34-3.61l10.73-2a1.82,1.82,0,0,1,.68,3.58l-10.73,2A1.86,1.86,0,0,1,2492.43,2551.16Zm-1499.32-.9a1.77,1.77,0,0,1-.36,0L982,2548.1a1.82,1.82,0,1,1,.71-3.57l10.71,2.13a1.82,1.82,0,0,1-.35,3.6Zm1535.08-5.87a1.82,1.82,0,0,1-.34-3.61l10.73-2a1.82,1.82,0,0,1,.68,3.58l-10.73,2A1.86,1.86,0,0,1,2528.19,2544.4Zm-1570.78-1.23a1.75,1.75,0,0,1-.36,0L946.35,2541a1.82,1.82,0,1,1,.71-3.57l10.71,2.13a1.82,1.82,0,0,1-.35,3.6ZM2564,2537.63a1.82,1.82,0,0,1-.34-3.61l10.73-2a1.82,1.82,0,1,1,.68,3.58l-10.73,2A1.83,1.83,0,0,1,2564,2537.63Zm-1642.23-1.56a1.78,1.78,0,0,1-.36,0l-10.71-2.13a1.82,1.82,0,1,1,.71-3.57l10.71,2.13a1.82,1.82,0,0,1-.35,3.6Zm1678-5.21a1.82,1.82,0,0,1-.34-3.61l10.73-2a1.82,1.82,0,1,1,.68,3.58l-10.73,2A1.83,1.83,0,0,1,2599.71,2530.87ZM886,2529a1.77,1.77,0,0,1-.36,0L875,2526.81a1.82,1.82,0,1,1,.71-3.57l10.71,2.13a1.82,1.82,0,0,1-.35,3.6Zm-35.7-7.1a1.78,1.78,0,0,1-.36,0l-10.71-2.13a1.82,1.82,0,1,1,.71-3.57l10.71,2.13a1.82,1.82,0,0,1-.35,3.6Zm-35.7-7.1a1.78,1.78,0,0,1-.36,0l-10.71-2.13a1.82,1.82,0,0,1,.71-3.57l10.71,2.13a1.82,1.82,0,0,1-.35,3.6Zm1801.11-7.24h0a1.82,1.82,0,0,1-1.81-1.83v-10.91a1.82,1.82,0,0,1,1.81-1.82h0a1.82,1.82,0,0,1,1.82,1.81v10.93A1.82,1.82,0,0,1,2615.74,2507.55Zm-1825.38-9.72a1.82,1.82,0,0,1-1.82-1.73q-.25-5.26-.5-10.92a1.82,1.82,0,0,1,3.64-.16q.25,5.65.5,10.9a1.82,1.82,0,0,1-1.73,1.91Zm1825.1-26.67a1.82,1.82,0,0,1-1.82-1.78q-.11-5.45-.25-10.89a1.82,1.82,0,0,1,1.77-1.87,1.74,1.74,0,0,1,1.87,1.77q.14,5.45.25,10.92a1.82,1.82,0,0,1-1.78,1.86Zm-1826.67-9.7a1.82,1.82,0,0,1-1.82-1.75l-.41-10.92a1.82,1.82,0,0,1,1.75-1.88,1.85,1.85,0,0,1,1.88,1.75l.41,10.91a1.82,1.82,0,0,1-1.75,1.89Zm1825.56-26.65a1.82,1.82,0,0,1-1.82-1.75q-.22-5.44-.48-10.87a1.82,1.82,0,0,1,1.73-1.9,1.8,1.8,0,0,1,1.9,1.73q.26,5.44.48,10.89a1.82,1.82,0,0,1-1.74,1.89Zm-1826.81-9.73a1.82,1.82,0,0,1-1.82-1.76l-.32-10.92a1.82,1.82,0,0,1,3.64-.1l.32,10.91a1.82,1.82,0,0,1-1.76,1.87Zm1824.94-26.6a1.82,1.82,0,0,1-1.81-1.71q-.34-5.46-.7-10.89a1.82,1.82,0,0,1,3.63-.25q.37,5.44.7,10.91a1.82,1.82,0,0,1-1.7,1.93ZM786.6,2388.69a1.82,1.82,0,0,1-1.82-1.78l-.22-10.93a1.82,1.82,0,0,1,3.64-.07l.22,10.91a1.82,1.82,0,0,1-1.78,1.86Zm1823.3-26.53a1.82,1.82,0,0,1-1.81-1.67q-.44-5.45-.9-10.88a1.82,1.82,0,1,1,3.63-.31q.46,5.43.91,10.89a1.82,1.82,0,0,1-1.67,2ZM786,2352.29a1.82,1.82,0,0,1-1.82-1.8l-.12-10.93a1.82,1.82,0,0,1,1.8-1.84h0a1.82,1.82,0,0,1,1.82,1.8l.12,10.91a1.82,1.82,0,0,1-1.8,1.84Zm1820.67-26.4a1.82,1.82,0,0,1-1.81-1.64q-.53-5.45-1.09-10.86a1.82,1.82,0,0,1,3.62-.37q.56,5.42,1.09,10.87a1.82,1.82,0,0,1-1.63,2Zm-1820.92-10a1.82,1.82,0,0,1-1.82-1.82v-10.91a1.83,1.83,0,0,1,1.82-1.82h0a1.82,1.82,0,0,1,1.82,1.82v10.92a1.82,1.82,0,0,1-1.82,1.82Zm1817.08-26.2a1.82,1.82,0,0,1-1.81-1.61q-.63-5.45-1.27-10.84a1.82,1.82,0,0,1,1.59-2,1.79,1.79,0,0,1,2,1.59q.65,5.4,1.27,10.86a1.82,1.82,0,0,1-1.6,2ZM785.88,2279.51h0a1.82,1.82,0,0,1-1.8-1.84q.05-5.44.12-10.91A1.82,1.82,0,0,1,786,2265h0a1.82,1.82,0,0,1,1.8,1.84q-.07,5.46-.12,10.9A1.82,1.82,0,0,1,785.88,2279.51Zm1812.51-26a1.82,1.82,0,0,1-1.8-1.58q-.71-5.45-1.44-10.82a1.82,1.82,0,0,1,3.61-.49q.72,5.38,1.44,10.83a1.82,1.82,0,0,1-1.57,2Zm-1812-10.42h0a1.82,1.82,0,0,1-1.78-1.86q.12-5.46.26-10.92a1.76,1.76,0,0,1,1.87-1.77,1.82,1.82,0,0,1,1.77,1.87q-.14,5.46-.26,10.91A1.82,1.82,0,0,1,786.44,2243.13Zm1807-25.65a1.82,1.82,0,0,1-1.8-1.56q-.79-5.45-1.6-10.8a1.82,1.82,0,0,1,3.6-.54q.81,5.36,1.6,10.81a1.82,1.82,0,0,1-1.54,2.06ZM787.49,2206.74h-.07a1.82,1.82,0,0,1-1.75-1.88q.2-5.47.42-10.93a1.87,1.87,0,0,1,1.89-1.74,1.82,1.82,0,0,1,1.74,1.89q-.22,5.45-.42,10.91A1.82,1.82,0,0,1,787.49,2206.74Zm1800.4-25.25a1.82,1.82,0,0,1-1.8-1.53q-.88-5.45-1.76-10.77a1.82,1.82,0,0,1,3.59-.59q.88,5.33,1.76,10.79a1.82,1.82,0,0,1-1.51,2.09ZM789.1,2170.35H789a1.82,1.82,0,0,1-1.72-1.91q.29-5.48.61-10.93a1.82,1.82,0,1,1,3.63.21q-.32,5.44-.61,10.91A1.82,1.82,0,0,1,789.1,2170.35Zm1792.75-24.77a1.82,1.82,0,0,1-1.79-1.5q-1-5.46-1.91-10.75a1.82,1.82,0,0,1,3.58-.64q1,5.29,1.91,10.76a1.82,1.82,0,0,1-1.48,2.11ZM791.39,2134h-.14a1.82,1.82,0,0,1-1.68-1.95q.4-5.48.83-10.9a1.82,1.82,0,0,1,3.63.29q-.43,5.41-.83,10.88A1.82,1.82,0,0,1,791.39,2134Zm1783.92-24.24a1.82,1.82,0,0,1-1.79-1.48q-1-5.49-2.07-10.72a1.82,1.82,0,0,1,3.57-.7q1,5.24,2.07,10.74a1.82,1.82,0,0,1-1.45,2.13A1.89,1.89,0,0,1,2575.3,2109.76Zm-1780.83-12h-.18a1.82,1.82,0,0,1-1.63-2q.54-5.48,1.11-10.88a1.82,1.82,0,0,1,3.62.39q-.57,5.39-1.11,10.85A1.82,1.82,0,0,1,794.47,2097.72ZM2568.22,2074a1.82,1.82,0,0,1-1.78-1.45q-1.15-5.56-2.23-10.69a1.82,1.82,0,1,1,3.56-.75q1.08,5.14,2.24,10.71a1.82,1.82,0,0,1-1.41,2.15A1.88,1.88,0,0,1,2568.22,2074ZM798.57,2061.56l-.24,0a1.82,1.82,0,0,1-1.57-2q.71-5.48,1.47-10.85a1.82,1.82,0,1,1,3.6.51q-.76,5.35-1.47,10.8A1.82,1.82,0,0,1,798.57,2061.56Zm1758-19.22h-.21q-5.26-.62-10.84-1.22a1.82,1.82,0,0,1,.39-3.62q5.59.61,10.86,1.23a1.82,1.82,0,0,1-.21,3.63Zm-36.2-3.77h-.17l-10.87-1a1.82,1.82,0,0,1,.32-3.63l10.88,1a1.82,1.82,0,0,1-.17,3.63Zm-36.27-3.05h-.14l-10.88-.81a1.82,1.82,0,0,1-1.68-1.95,1.84,1.84,0,0,1,1.95-1.68l10.9.81a1.82,1.82,0,0,1-.14,3.63Zm-36.31-2.57h-.12l-10.89-.7a1.82,1.82,0,0,1,.23-3.63l10.9.7a1.82,1.82,0,0,1-.12,3.64Zm-36.33-2.21h-.1l-10.9-.61a1.82,1.82,0,1,1,.2-3.63l10.91.61a1.82,1.82,0,0,1-.1,3.64Zm-36.35-1.93H2375l-10.9-.53a1.82,1.82,0,1,1,.17-3.64l10.91.53a1.82,1.82,0,0,1-.09,3.64Zm-36.36-1.71h-.08l-10.91-.47a1.82,1.82,0,0,1-1.74-1.9,1.85,1.85,0,0,1,1.9-1.74l10.91.47a1.82,1.82,0,0,1-.08,3.64Zm-36.36-1.52h-.07l-10.91-.42a1.82,1.82,0,1,1,.14-3.64l10.91.42a1.82,1.82,0,0,1-.07,3.64Zm-1498.37,0-.31,0a1.82,1.82,0,0,1-1.48-2.1l.61-3.43a6.44,6.44,0,0,1,6.29-5.4H810a1.69,1.69,0,0,1,1.85,1.79,1.82,1.82,0,0,1-1.79,1.85h-.95a2.81,2.81,0,0,0-2.76,2.4l-.6,3.42A1.82,1.82,0,0,1,804,2025.56Zm1462-1.34h-.07l-10.91-.38a1.82,1.82,0,1,1,.12-3.64l10.91.38a1.82,1.82,0,0,1-.06,3.64Zm-36.38-1.22h-.06l-10.91-.34a1.82,1.82,0,0,1-1.76-1.87,1.84,1.84,0,0,1,1.88-1.76l10.91.34a1.82,1.82,0,0,1-.06,3.64Zm-36.38-1.1h-.05l-10.91-.31a1.82,1.82,0,0,1-1.77-1.87,1.78,1.78,0,0,1,1.87-1.77l10.92.31a1.82,1.82,0,0,1-.05,3.64Zm-36.38-1h0l-10.91-.28a1.82,1.82,0,0,1-1.77-1.87A1.76,1.76,0,0,1,2146,2017l10.92.28a1.82,1.82,0,0,1,0,3.64Zm-36.39-.9h0l-10.91-.25a1.82,1.82,0,0,1-1.78-1.86,1.75,1.75,0,0,1,1.86-1.78l10.92.25a1.82,1.82,0,0,1,0,3.64Zm-36.39-.81h0l-10.91-.23a1.82,1.82,0,0,1-1.78-1.86,1.88,1.88,0,0,1,1.86-1.78l10.92.23a1.82,1.82,0,0,1,0,3.64Zm-36.39-.73h0l-10.92-.21a1.82,1.82,0,0,1-1.79-1.85,1.73,1.73,0,0,1,1.85-1.79l10.92.21a1.82,1.82,0,0,1,0,3.64Zm-1212.12-.56a1.82,1.82,0,0,1,0-3.64l10.92-.13a1.91,1.91,0,0,1,1.84,1.8,1.82,1.82,0,0,1-1.8,1.84l-10.92.13Zm1175.74-.11h0l-10.91-.18a1.82,1.82,0,0,1,0-3.64h0l10.92.18a1.82,1.82,0,0,1,0,3.64ZM872,2017.47a1.82,1.82,0,0,1,0-3.64l10.92-.12a1.75,1.75,0,0,1,1.84,1.8,1.82,1.82,0,0,1-1.8,1.84l-10.92.12Zm1102.93-.27h0L1964,2017a1.82,1.82,0,0,1-1.79-1.85,1.73,1.73,0,0,1,1.85-1.79l10.92.17a1.82,1.82,0,0,1,0,3.64Zm-1066.52-.13a1.82,1.82,0,0,1,0-3.64l10.92-.12a1.78,1.78,0,0,1,1.84,1.8,1.82,1.82,0,0,1-1.8,1.84l-10.92.12Zm36.41-.38a1.82,1.82,0,0,1,0-3.64l10.92-.11a1.8,1.8,0,0,1,1.84,1.8,1.82,1.82,0,0,1-1.8,1.84l-10.92.11Zm993.71,0h0l-10.92-.15a1.82,1.82,0,0,1,0-3.64h0l10.92.15a1.82,1.82,0,0,1,0,3.64Zm-957.3-.33a1.82,1.82,0,0,1,0-3.64l10.92-.1a1.82,1.82,0,1,1,0,3.64l-10.92.1Zm920.91-.15h0l-10.92-.13a1.82,1.82,0,0,1-1.8-1.84,1.75,1.75,0,0,1,1.84-1.8l10.92.13a1.82,1.82,0,0,1,0,3.64Zm-884.5-.18a1.82,1.82,0,0,1,0-3.64l10.92-.1h0a1.82,1.82,0,0,1,0,3.64l-10.92.1Zm848.11-.24h0l-10.92-.12a1.82,1.82,0,1,1,0-3.64l10.92.12a1.82,1.82,0,0,1,0,3.64Zm-811.7-.07a1.82,1.82,0,0,1,0-3.64l10.92-.09h0a1.82,1.82,0,0,1,0,3.64l-10.92.09Zm36.41-.29a1.82,1.82,0,0,1,0-3.64l10.92-.08h0a1.82,1.82,0,0,1,0,3.64l-10.92.08Zm738.9,0h0l-10.92-.1a1.82,1.82,0,0,1,0-3.64h0l10.92.1a1.82,1.82,0,0,1,0,3.64Zm-702.49-.24a1.82,1.82,0,0,1,0-3.64l10.92-.07a1.78,1.78,0,0,1,1.83,1.81,1.82,1.82,0,0,1-1.81,1.83l-10.92.07Zm666.1-.09h0L1782,2015a1.82,1.82,0,0,1,0-3.64h0l10.92.09a1.82,1.82,0,0,1,0,3.64Zm-629.69-.15a1.82,1.82,0,0,1,0-3.64l10.92-.07h0a1.82,1.82,0,0,1,0,3.64l-10.92.07Zm593.3-.13h0l-10.92-.08a1.82,1.82,0,0,1-1.81-1.83,1.77,1.77,0,0,1,1.83-1.81l10.92.08a1.82,1.82,0,0,1,0,3.64Zm-556.89-.09a1.82,1.82,0,0,1,0-3.64l10.92-.06h0a1.82,1.82,0,0,1,0,3.64l-10.92.06Zm520.5-.15h0l-10.92-.06a1.82,1.82,0,0,1-1.81-1.83,1.86,1.86,0,0,1,1.83-1.81l10.92.06a1.82,1.82,0,0,1,0,3.64Zm-484.09,0a1.82,1.82,0,0,1,0-3.64l10.92-.05h0a1.82,1.82,0,0,1,0,3.64l-10.92.05Zm447.7-.16h0l-10.92-.05a1.82,1.82,0,0,1,0-3.64h0l10.92.05a1.82,1.82,0,0,1,0,3.64Zm-411.29,0a1.82,1.82,0,0,1,0-3.64l10.92,0h0a1.82,1.82,0,0,1,0,3.64l-10.92,0Zm36.41-.14a1.82,1.82,0,0,1,0-3.64l10.92,0h0a1.82,1.82,0,0,1,0,3.64l-10.92,0Zm338.49,0h0l-10.92,0a1.82,1.82,0,0,1,0-3.64h0l10.92,0a1.82,1.82,0,0,1,0,3.64Zm-302.09-.11a1.82,1.82,0,0,1,0-3.64l10.92,0h0a1.82,1.82,0,0,1,0,3.64l-10.92,0Zm265.69,0h0l-10.92,0a1.82,1.82,0,0,1,0-3.64h0l10.92,0a1.82,1.82,0,0,1,0,3.64Zm-229.29-.08a1.82,1.82,0,0,1,0-3.64l10.92,0h0a1.82,1.82,0,0,1,0,3.64l-10.92,0Zm192.89,0h0l-10.92,0a1.82,1.82,0,0,1,0-3.64h0l10.92,0a1.82,1.82,0,0,1,0,3.64Zm-156.49,0a1.82,1.82,0,0,1,0-3.64H1429a1.82,1.82,0,0,1,0,3.64h-10.92Zm120.09,0h-10.92a1.82,1.82,0,0,1,0-3.64h10.92a1.82,1.82,0,0,1,0,3.64Zm-83.69,0a1.82,1.82,0,1,1,0-3.64h10.89a1.82,1.82,0,1,1,0,3.64Zm47.29,0h-10.92a1.82,1.82,0,0,1,0-3.64h10.92a1.82,1.82,0,0,1,0,3.64Z"/><path class="cls-18" d="M1840.13,2849.46H1601.56a61.64,61.64,0,0,1-61.3-54.16l-27.56-229.57c-4.39-36.57,24.3-68.74,61.3-68.74H1860.6c36.25,0,64.7,30.94,61.5,66.88l-20.47,229.57A61.63,61.63,0,0,1,1840.13,2849.46Z"/><g class="cls-19"><path class="cls-20" d="M1810.79,2807.24H1629.21a46.91,46.91,0,0,1-46.66-41.22l-21-174.73a46.85,46.85,0,0,1,46.66-52.32h218.14a46.86,46.86,0,0,1,46.81,50.91L1857.6,2764.6A46.91,46.91,0,0,1,1810.79,2807.24Z"/></g><path class="cls-21" d="M2725.06,3240.07c-55.76,2.57-109.74,1-145.78-.9,32.81-23.36,108.41-74.17,171.67-94.4l43.42-2.6s14.71,22.38,20,73.59C2807.14,3224.74,2786.11,3237.26,2725.06,3240.07Z"/><path class="cls-22" d="M2578.83,3239.49l.45-.32c36,1.85,90,3.46,145.78.9,61-2.81,82.08-15.33,89.28-24.31.24,2.36.49,4.7.69,7.18a20.33,20.33,0,0,1-18.68,22c-45.67,3.45-158.91,11.27-213.51,8.41A7.62,7.62,0,0,1,2578.83,3239.49Z"/><path class="cls-23" d="M3123.91,3225.14c4.08-26.18,10.63-64,15.69-73.7,7.94-15.18,35.11,0,35.11,0s19.08,8.89,27.85,23.72c5.6,9.45,21.07,36.34,31.56,54.6a12.25,12.25,0,0,1,1.65,6.5l-108.8,3.81A21.72,21.72,0,0,1,3123.91,3225.14Z"/><path class="cls-24" d="M3235.77,3236.26a12.39,12.39,0,0,1-12.06,12l-77.51,2.13a21.88,21.88,0,0,1-19.23-10.37Z"/><path class="cls-25" d="M3115.59,3064.43c.94,3.14,15,71.3,21.15,101.21a17.08,17.08,0,0,0,17.58,13.65c4.6-.23,10-.64,15.58-1.37a20.62,20.62,0,0,0,17.94-19.65c1-26.2,1.49-76.51-8.13-96C3166.44,3035.37,3115.59,3064.43,3115.59,3064.43Z"/><path class="cls-26" d="M2802.91,3083.94c-6-.19,2.41,31.13-6.72,61.92-2.06,6.94-7.25,12.39-14.49,12.49-4.69.06-10.26,0-15.9-.48a17.49,17.49,0,0,1-16.11-15.75l-7.42-79.86Z"/><path class="cls-27" d="M2634.25,2235c2.69,13.1,97.69,567.2,103.45,853.92a9.76,9.76,0,0,0,8.4,9.5c12.06,1.68,35.55,3.84,58.32-.38a6.88,6.88,0,0,0,5.67-6.31c3.32-53.43,30-505.19-2.68-717.85,0,0,270.11,568.48,311.05,725.23a8.24,8.24,0,0,0,8.43,6.17c11.57-.61,35.63-2.69,54.73-9.72a14.3,14.3,0,0,0,9-16.8c-22.88-93.81-183.19-740.13-292-882.53Z"/><path class="cls-28" d="M2807.4,2377.45a3.55,3.55,0,0,0,2.53-6l-36.17-37a3.55,3.55,0,1,0-5.07,5l36.17,37A3.54,3.54,0,0,0,2807.4,2377.45Z"/><path class="cls-29" d="M2542.89,1520c80.81-12.15,239.41-29.55,342.87.8l-11.22,319.75-374.81-40.41-31.79-45.19S2482.66,1529,2542.89,1520Z"/><path class="cls-30" d="M2729.57,1348.8s7.49,127.18,6.07,166.74c0,0-104.12,17-128.9-.77L2626.31,1364Z"/><path class="cls-31" d="M2628.35,1221.42s-41.92,73.59-48.54,113.87-18.18,65.63,27.79,78.84,88-5.89,113.69-44c0,0,40.2-58.59,35.43-84.87S2628.35,1221.42,2628.35,1221.42Z"/><path class="cls-32" d="M2708.41,1339.43l-5.92-.64s29.8-47.43,9.3-58.54-103.58-37.57-118.66-69.69c-14.54-31,5.26-66.8,30-74.76a3.17,3.17,0,0,1,3.85,1.91l1.56,3.91a3.2,3.2,0,0,0,5.93,0h0a3.19,3.19,0,0,1,5.8-.26c4.64,9.62,18.25,25.91,58.19,37.82,56.67,16.89,92.37,44.41,89,84.46a3.2,3.2,0,0,0,4.65,3.14c4.55-2.14,11.51-2.63,19.81,6,14.44,15.06,4.21,49-33.65,73.72a3.18,3.18,0,0,0-.4,5.12c5.87,4.79,14.22,15.57-11.55,26-26.36,10.64-41,7.6-46.37,5.58a3.2,3.2,0,0,1-2.06-3.55l6-35.17a3.2,3.2,0,0,0-2.81-3.72Z"/><path class="cls-33" d="M2706.16,1346.69s18.13-47.94,38.76-31.73-17.42,54-35.4,54Z"/><path class="cls-34" d="M2257.21,1770.11l9.94-39.07a37.36,37.36,0,0,1,43.68-27.4l936.05,191a39.21,39.21,0,0,1,30.52,46.51l-57.07,270.51Z"/><path class="cls-4" d="M2168.46,2244.63l70.4-506a18.1,18.1,0,0,1,21.85-15.17l961.4,213.49a37.84,37.84,0,0,1,28.67,45.44l-80.69,349.76Z"/><path class="cls-35" d="M2193.85,2221.7l27-451.64a19,19,0,0,1,22.93-17.48l971.51,205.58a26.3,26.3,0,0,1,20.53,29.85L3184,2314.26Z"/><path class="cls-36" d="M2123.48,2328.46l61.16-489.19a42.6,42.6,0,0,1,50.18-36.58l996.21,188a37.22,37.22,0,0,1,29.68,43.48L3176.56,2480a40.28,40.28,0,0,1-44.91,32.46l-965.75-129A49.33,49.33,0,0,1,2123.48,2328.46Z"/><path class="cls-37" d="M2585.36,1868.85h0a38.24,38.24,0,0,1-44.67,30.49l-222.12-41.92a38.24,38.24,0,0,1-30.49-44.67h0a38.24,38.24,0,0,1,44.67-30.49l222.12,41.92A38.24,38.24,0,0,1,2585.36,1868.85Z"/><path class="cls-38" d="M2781.21,1660.2l104.55-139.42s168,178.46,200.22,405l-104.79,51.1C2948.66,1900.58,2888.79,1797.25,2781.21,1660.2Z"/><path class="cls-39" d="M2931,2288.26c12.39-20.72,36.57-60.17,48.33-72.48,0,0-10.75-6.79-31.38-4.26s-36.78-7.53-36.16-18.75l98.41-30.19c4.42-9.24,23.89-61.66-29-185.73l104.79-51.1c12.07,84.8,5.14,176.32-36.8,267.75,0,0-32.54,101.07-69.93,123.5C2881.67,2375.53,2926.24,2296.21,2931,2288.26Z"/></g></svg>