<svg xmlns="http://www.w3.org/2000/svg" xmlns:xlink="http://www.w3.org/1999/xlink" viewBox="0 0 123.08 177.92"><defs><style>.cls-1{fill:url(#linear-gradient);}.cls-2{fill:url(#linear-gradient-2);}.cls-3{fill:#fff;}.cls-4{fill:#aedada;}.cls-5{fill:#ffbc00;}.cls-6{fill:#e1b599;}.cls-7{fill:#ad8a77;}.cls-8{fill:#7b4b45;}.cls-9{fill:#1a2e35;}.cls-10{fill:#375a64;}.cls-11{fill:#ff735d;}</style><linearGradient id="linear-gradient" x1="-30.82" y1="-147.07" x2="99.72" y2="-147.07" gradientTransform="translate(-99.72 30.82) rotate(90)" gradientUnits="userSpaceOnUse"><stop offset="0" stop-color="#23232e"/><stop offset="1" stop-color="#fff" stop-opacity="0"/></linearGradient><linearGradient id="linear-gradient-2" x1="5.65" y1="-196.99" x2="147.1" y2="-196.99" xlink:href="#linear-gradient"/></defs><title>card dashboard</title><g id="Layer_2" data-name="Layer 2"><g id="Layer_3" data-name="Layer 3"><polygon class="cls-1" points="7.04 130.54 29.7 0 71.78 0 87.65 130.54 7.04 130.54"/><polygon class="cls-2" points="71.78 177.93 71.78 36.47 122.76 36.47 104.38 177.93 71.78 177.93"/><circle class="cls-3" cx="74.77" cy="59.04" r="48.31"/><circle class="cls-4" cx="40.15" cy="111.18" r="40.15"/><circle class="cls-5" cx="100.84" cy="103.36" r="21.92"/><path class="cls-6" d="M58.43,55.32l-.55,44.57c-.09,7.58,1.32,18.73,13.31,18.33h0c10.38-1.13,13.13-11,13.21-18,0-3.35.08-6.15.1-6.5,0,0,11.36-.93,12.32-12.15.46-5.42.51-16.67.43-26.84A21,21,0,0,0,77.8,34l-1.08-.08C65,33.72,58.28,43.59,58.43,55.32Z"/><path class="cls-7" d="M84.5,93.7a27.2,27.2,0,0,1-14.3-5.39s3,8.46,14.25,8.27Z"/><path class="cls-6" d="M58.74,63.7c-.19-.1-7.55-2.85-7.86,4.85s7.47,6.42,7.5,6.2S58.74,63.7,58.74,63.7Z"/><path class="cls-8" d="M56.15,71.74s-.14.09-.37.18a1.34,1.34,0,0,1-1,0c-.8-.33-1.43-1.65-1.41-3a4.44,4.44,0,0,1,.45-1.9,1.55,1.55,0,0,1,1.05-1,.68.68,0,0,1,.78.4c.09.22,0,.37.08.39s.17-.12.12-.44a.85.85,0,0,0-.28-.49,1,1,0,0,0-.73-.23,1.89,1.89,0,0,0-1.45,1.14,4.56,4.56,0,0,0-.55,2.13c0,1.55.72,3,1.82,3.4a1.44,1.44,0,0,0,1.23-.15C56.13,71.93,56.17,71.76,56.15,71.74Z"/><path class="cls-9" d="M78.07,59.31c-.22.23-1.52-.82-3.4-.87s-3.28.87-3.48.63.13-.52.75-1a4.71,4.71,0,0,1,2.79-.79,4.54,4.54,0,0,1,2.7,1C78,58.78,78.18,59.21,78.07,59.31Z"/><path class="cls-9" d="M76.15,63.18a1.52,1.52,0,0,1-1.57,1.42,1.45,1.45,0,0,1-1.46-1.48,1.52,1.52,0,0,1,1.57-1.42A1.46,1.46,0,0,1,76.15,63.18Z"/><path class="cls-9" d="M82.78,72.39a11.46,11.46,0,0,1,2.84-.3c.44,0,.87-.07,1-.37a2.25,2.25,0,0,0-.2-1.33l-1.06-3.45C83.86,62,82.84,58,83,58s1.54,3.88,3,8.79l1,3.47a2.56,2.56,0,0,1,.1,1.75,1.11,1.11,0,0,1-.77.59,3,3,0,0,1-.76,0A11.25,11.25,0,0,1,82.78,72.39Z"/><path class="cls-9" d="M77.27,52.24c-.18.42-1.69.1-3.49.2s-3.28.49-3.49.09c-.09-.19.19-.58.8-.95a5.69,5.69,0,0,1,2.64-.74,5.63,5.63,0,0,1,2.68.53C77,51.69,77.35,52,77.27,52.24Z"/><path class="cls-9" d="M95.12,55.73c-.2.34-1.66,0-3.44-.09s-3.25.17-3.44-.18c-.08-.17.21-.47.83-.74a6.21,6.21,0,0,1,2.63-.43,6.41,6.41,0,0,1,2.61.64C94.92,55.24,95.21,55.57,95.12,55.73Z"/><path class="cls-9" d="M81,77.71c.08-.19-1.42-.65-2.48-2.06a8.64,8.64,0,0,1-1.06-2c-.22-.56-.39-.91-.48-.88s-.06.4.06,1A5.68,5.68,0,0,0,78,76a4.6,4.6,0,0,0,2,1.5C80.54,77.77,80.94,77.78,81,77.71Z"/><path class="cls-9" d="M112.15,44.64a1.82,1.82,0,0,0-.85-1.06,5.59,5.59,0,0,0-2.87-.47A16.2,16.2,0,0,1,100,40.55a37.78,37.78,0,0,0-3.93-4.76c-3.4-3.51-6.2-5.89-9.09-7.06-3.74-1.51-10-2.12-13.91-1.09s-7.41,4.19-8,8.19C62.92,34,59.63,34,57,35.07l-.07,0c-3,1.06-4.66,4.2-5.53,7.22s-1.25,6.27-2.85,9c-.34.57-.73,1.25-.44,1.84a1.25,1.25,0,0,0,1.31.57A3.67,3.67,0,0,0,50.77,53l-1,2.38A7,7,0,0,0,53,55.19a68.86,68.86,0,0,0,2.11,8,4.57,4.57,0,0,1,3.14.77c1,.94,1.51,2.69,3.23,2,.88-.34,1.68-2.19,2-3.08a43.79,43.79,0,0,0,1.9-18.53,14.07,14.07,0,0,1,4.35-3.14l-.13.12c3.14-1.09,6.68-2.16,9.66-.69,2.31,1.14,3.66,3.54,5.39,5.45A17.16,17.16,0,0,0,97,51.89c.17,3.16.1,7.63.27,10.79l2.66-5.06v0c.22-.37.4-.74.57-1.12l.06-.11h0a19.65,19.65,0,0,1,.89-1.8l0,0A2,2,0,0,0,104.34,52a4.44,4.44,0,0,0-1-1,3.12,3.12,0,0,0,3,.77,2.45,2.45,0,0,0,1.73-2.42,2.08,2.08,0,0,0-1.24-1.67,7,7,0,0,0,4-.88C111.64,46.38,112.41,45.64,112.15,44.64Z"/><path class="cls-10" d="M68.64,37.12a9.66,9.66,0,0,0-1.13,1,8,8,0,0,0-1.72,3.73,14.16,14.16,0,0,0-.29,2.85c0,1,.08,2.14.16,3.31a29.55,29.55,0,0,1,.08,3.68,12.94,12.94,0,0,1-.25,1.94,4,4,0,0,1-.79,1.88,1.69,1.69,0,0,1-1.58.53,2.52,2.52,0,0,1-1.42-.8,5.82,5.82,0,0,1-1.08-2.85l.24,0a9.4,9.4,0,0,1-1.37,2.35A3.34,3.34,0,0,1,57.3,56a2.16,2.16,0,0,1-1.16-.2,1.87,1.87,0,0,1-.79-.77,1.93,1.93,0,0,1-.24-1,1.39,1.39,0,0,1,.36-.87l.12.11a7.24,7.24,0,0,1-2.41,1.81,6.48,6.48,0,0,1-.75.29l-.27.07.25-.11c.17-.07.41-.17.72-.33a7.46,7.46,0,0,0,2.33-1.84l.12.11a1.44,1.44,0,0,0-.07,1.67,1.68,1.68,0,0,0,.71.69,2,2,0,0,0,1,.17,3.13,3.13,0,0,0,2-1.13,9.27,9.27,0,0,0,1.31-2.3l.16-.36.07.39a5.63,5.63,0,0,0,1,2.73,2.27,2.27,0,0,0,1.28.72,1.43,1.43,0,0,0,1.35-.45,3.83,3.83,0,0,0,.73-1.76,12.82,12.82,0,0,0,.25-1.9,30,30,0,0,0-.07-3.65c-.07-1.17-.15-2.28-.13-3.32a14.07,14.07,0,0,1,.32-2.89,7.94,7.94,0,0,1,1.83-3.76A4.56,4.56,0,0,1,68.64,37.12Z"/><path class="cls-10" d="M103.36,48l-.09.08-.28.2a3.74,3.74,0,0,1-.48.3,6,6,0,0,1-.68.36,10,10,0,0,1-4.8.86,12.72,12.72,0,0,1-6.77-2.5,22,22,0,0,1-5.82-6.71c-.82-1.36-1.48-2.75-2.21-4a14.88,14.88,0,0,0-2.51-3.42,7.66,7.66,0,0,0-3.23-2,5.49,5.49,0,0,0-1.71-.2,6,6,0,0,0-1.56.3,6.5,6.5,0,0,0-3.61,3.05A7.77,7.77,0,0,0,69,36.06a.39.39,0,0,1,0-.12l.05-.34a5.62,5.62,0,0,1,.43-1.27,6.39,6.39,0,0,1,1.26-1.7,6.57,6.57,0,0,1,2.38-1.48,6.19,6.19,0,0,1,1.61-.33,5.67,5.67,0,0,1,1.77.19,7.85,7.85,0,0,1,3.34,2,15,15,0,0,1,2.56,3.46c.74,1.3,1.41,2.69,2.22,4a22,22,0,0,0,5.74,6.65A12.64,12.64,0,0,0,97,49.66a10.1,10.1,0,0,0,4.75-.77A15.78,15.78,0,0,0,103.36,48Z"/><path class="cls-10" d="M104.38,43.11a1.76,1.76,0,0,1-.4.28,8.67,8.67,0,0,1-1.19.61,11.58,11.58,0,0,1-1.89.62,12.22,12.22,0,0,1-4.84.16,11.6,11.6,0,0,1-1.92-.5,8.7,8.7,0,0,1-1.23-.53,1.76,1.76,0,0,1-.42-.25s.64.27,1.71.61a13.23,13.23,0,0,0,1.9.44,13.09,13.09,0,0,0,4.75-.15,13.24,13.24,0,0,0,1.87-.56C103.76,43.42,104.35,43.07,104.38,43.11Z"/><path class="cls-9" d="M95.2,60c-.22.23-1.52-.82-3.4-.87s-3.28.87-3.48.63.13-.52.75-1A4.71,4.71,0,0,1,91.87,58a4.54,4.54,0,0,1,2.7,1C95.13,59.49,95.31,59.92,95.2,60Z"/><path class="cls-9" d="M92.55,63.59A1.52,1.52,0,0,1,91,65a1.45,1.45,0,0,1-1.46-1.48,1.52,1.52,0,0,1,1.57-1.42A1.46,1.46,0,0,1,92.55,63.59Z"/><path class="cls-11" d="M61.87,99a9.86,9.86,0,0,0-8.81-.65l-8.38,3.5A46.33,46.33,0,0,0,24,118.5c-1.2,1.77-5,15.47-5.29,16.6l0,.14a9.77,9.77,0,0,0,9.49,12.1h83.11a9.77,9.77,0,0,0,9.62-11.46c-1.65-9.31-4.59-21.45-9.1-24.94-3.21-2.49-13.91-7.78-21-11.17a9.89,9.89,0,0,0-9.9.87,10.49,10.49,0,0,1-5.81,1.79A24.85,24.85,0,0,1,61.87,99Z"/></g></g></svg>