<?xml version="1.0" encoding="utf-8"?>
<!-- Generator: Adobe Illustrator 21.1.0, SVG Export Plug-In . SVG Version: 6.00 Build 0)  -->
<svg version="1.1" xmlns="http://www.w3.org/2000/svg" xmlns:xlink="http://www.w3.org/1999/xlink" x="0px" y="0px"
	 viewBox="0 0 1280 1300" style="enable-background:new 0 0 1280 1300;" xml:space="preserve">
<style type="text/css">
	.st0{fill:#F09959;}
	.st1{fill:#E38540;}
	.st2{fill:#303C60;}
	.st3{fill:#6791C9;}
	.st4{fill:#D54A41;}
	.st5{fill:#2E5B9A;}
	.st6{fill:#75A1DE;}
	.st7{fill:#F37168;}
	.st8{fill:#F2E5DE;}
	.st9{opacity:0.5;fill:#9EC8FF;}
	.st10{fill:#FFFFFF;}
</style>
<g id="Layer_12">
	<g>
		<path class="st0" d="M811.2,171.5c11.5,40.5-16.6,82.2-47.5,91c-30.9,8.8-52.9-18.7-64.4-59.2c-11.5-40.5,4.3-80.4,35.2-89.2
			C765.4,105.3,799.7,131,811.2,171.5z"/>
		<path class="st0" d="M872.2,311c-22.5-53.2-28-112.9-28-112.9l-58.8,17.4c0,0,33.4,74.9,1.3,101.6c-6.8,5.7-14.7,12.6-22.9,20.9
			C798.5,312.9,835.7,305.9,872.2,311z"/>
		<path class="st1" d="M845.9,212.3c-3.5-3.1-7.8-7-12.4-11l-48,14.2c0,0.1-0.1,0.2-0.1,0.3c1.2,2.7,13.4,31.2,15,58.6
			c14.3-8.7,30-22.8,47.9-47.5C847.3,221.3,846.5,216.4,845.9,212.3z"/>
		<path class="st2" d="M727.3,79.5c-74.5,3.6-62.8,115.7-62.8,115.7s19.4,6,59.9-0.7c-3.1-12-1.8-42.8-1.8-42.8s4.7,25,10.7,40.1
			c8.6,3.9,18.3,0.4,34.8-3.5c8.5,35.6,32.4,50.7,48.8,55.8c18.1,5.7,37.3,12.5,58.7,1.8c21.4-10.7,9.6-120-1.7-142
			c-17-33-45.4-62.5-94.4-46.9C754.8,64.7,727.3,79.5,727.3,79.5z"/>
		<path class="st2" d="M856.9,212.7l30.5,44.5c0,0-33.8,84.4,64.4,122.6c76.9,29.9,67.9,82.7,33.1,135.7
			c-34.8,53.1,20.8,99.4,20.8,99.4s8.5-58.8,83.2-69.9c101.9-15.1,130.8-151.9,54.6-220.4c-63-56.6-82.1-9.7-124.8-60.5
			c-42.6-50.8-123.1-16.5-123.1-16.5l-29.5-43L856.9,212.7z"/>
	</g>
</g>
<g id="Layer_11">
	<g>
		<path class="st0" d="M239.4,1008.9c0,0-96.3,158.7-114.1,172.9c-17.8,14.3-76.7,35.7-28.5,39.2c48.1,3.6,71.3-16,101.6-25
			c30.3-8.9,67.7-14.3,53.5-37.4c-14.3-23.2-8.3-73.8,22.4-105.9C305,1020.7,239.4,1008.9,239.4,1008.9z"/>
		<path class="st3" d="M730.6,641c0,0-238.3-6.2-332.8,71.3c-55.3,83.8-188.9,331-199.3,358.2c7.1,7.1,47.2,20,65.1,18.2
			c52.6-62.7,122.1-116.9,149.7-166.1c34.1-60.6,44.6-90.9,99.8-96.3c55.3-5.3,180-23.2,217.5-23.2C768.1,803.2,730.6,641,730.6,641
			z"/>
		<path class="st4" d="M246,1142.6c-63.9,31.2-98.2,49.1-118.7,47.4c-4.8-0.4-8.8-0.9-12.2-1.4c-22.8,13.5-59.1,29.4-18.2,32.4
			c48.1,3.6,71.3-16,101.6-25c30.3-8.9,67.7-14.3,53.5-37.4C249.2,1154.2,247.2,1148.7,246,1142.6z"/>
	</g>
</g>
<g id="Layer_10">
	<g>
		<polygon class="st5" points="938.4,1221.5 926,1221.5 836.4,847.8 863.9,847.8 		"/>
		<polygon class="st5" points="564.3,1221.5 576.8,1221.5 679.5,834.5 652.1,834.5 		"/>
		<g>
			<path class="st5" d="M799.6,861.8c-3.8,0-7.6,0-11.6-0.1c-49.2-1.2-82.8-8-109.7-13.5c-31.9-6.5-49.4-10-70.1-0.2
				c-7,3.3-15.3,0.4-18.7-6.6c-3.3-7-0.4-15.3,6.6-18.7c29.2-13.9,53.7-8.9,87.8-2c25.9,5.3,58.1,11.8,104.8,13
				c52.7,1.3,84.9-6.6,101.3-24.8c14.7-16.3,19-43.5,13.6-85.5c-1.8-14.2-3.7-26.1-5.3-36.5c-4.5-29.3-7.5-48.7-3.8-78.5
				c3.4-27.8,12.7-65,34.1-137c2.2-7.4,10-11.6,17.4-9.4c7.4,2.2,11.6,10,9.4,17.4c-40,134.7-38,147.9-29.4,203.3
				c1.6,10.6,3.5,22.6,5.4,37.2c6.5,50.8,0,85-20.6,107.8C889.7,851,855.1,861.8,799.6,861.8z"/>
		</g>
	</g>
</g>
<g id="Layer_9">
	<g>
		<path class="st0" d="M638,956.1c0,0,79.2,123,89.9,128.3c10.7,5.3,37.4,6.7,27.4,26.7c-10,20.1-14,98.9-23.4,102.9
			c-9.4,4-89.6,13.4-77.5,0c12-13.4,19.4-6.7,25.5-30.7c6.1-24.1,14.6-69.5,3.2-78.9c-11.4-9.4-80.9-93.6-80.9-93.6L638,956.1z"/>
		<path class="st6" d="M866.4,624.7l-138.5,23.9c0,0-184.1,1.7-268.3,17.4c-76.6,14.3-87.8,101.3,0,221
			c49.9,68,92.1,122.3,178.4,183.5c21.9-16.1,30.3-22.2,36.4-61c-6.2-8.6-22.4-62.2-27.4-72.6c-47.7-99.8-111.4-136-112.3-145.9
			c10.7-17.4,283.3,90.6,337.5,27.1C923.9,757.5,866.4,624.7,866.4,624.7z"/>
		<path class="st4" d="M734.8,1087c-1.6,50.6-8.5,100.7-39.4,110.1c-8.2,2.5-15.7,2.9-22.3,2c-4.9,6-10.8,6.1-18.8,14.9
			c-12,13.4,68.2,4,77.5,0c9.4-4,13.4-82.9,23.4-102.9C763.5,1094.7,746.9,1090.8,734.8,1087z"/>
	</g>
</g>
<g id="Layer_8">
	<path class="st0" d="M830.8,327.8c-60.6,21.2-53.9,85-109.6,179.1c-28.9,48.7-55.7,48-55.7,48s-67.7,0.5-149.5-9.5
		c-51.3-6.3-54.5,9-18.9,21.7c71.9,25.7,146.5,53.4,206.7,46.7c60.2-6.7,163.1-160.2,168.4-200.1
		C879.5,358.5,861.3,317.1,830.8,327.8z"/>
</g>
<g id="Layer_7">
	<g>
		<path class="st6" d="M488.8,606.9H285.9c-5.4,0-10.4-3.2-12.7-8.1l-82-176.5c-3.3-7-0.2-15.3,6.8-18.6c7-3.3,15.3-0.2,18.6,6.8
			l78.2,168.4h194c7.7,0,14,6.3,14,14C502.8,600.6,496.5,606.9,488.8,606.9z"/>
	</g>
</g>
<g id="Layer_6">
	<g>
		<path class="st7" d="M872.2,311c-36.5-5.1-73.6,1.8-108.4,27c-30.4,31-64.7,82-62.6,166.2c2.7,107-16.5,113.8,3.5,143.2
			c83.6,34.5,226.7,182.9,193,23.8c-24.4-115.2,53.5-201.1-9.3-328.8C883.2,332.1,876.8,322,872.2,311z"/>
		<path class="st4" d="M701.1,544.5c-1.6,55.8-9.5,72.2-3.5,89.7c34.1,3.5,96.5,17.1,112.1,38.9c17.8,25,35.7,28.5,27.3,10.1
			c-8.3-18.4-30.3-44.6,3.6-134.3c33.9-89.7,49.9-150.3,16.6-212.7L701.1,544.5z"/>
		<path class="st8" d="M866.1,262.5l6,48.5c0,0-53.1,3.2-79.5,18c-26.4,14.9-65.4,57.8-65.4,57.8l31.8-54.8l4.6-35.1L866.1,262.5z"
			/>
	</g>
</g>
<g id="Layer_5">
	<g>
		<path class="st0" d="M531.3,547.2c-41-0.6-81.7-25-101.9-21.5c-20.2,3.6-86.2,49.3-77.8,51.1c8.3,1.8,60.6-25.3,62.4-25.7
			c1.8-0.4,13.1,18.8,41,25.8c27.9,7,0.2-20.9,86.8,5.2C598,599.1,531.3,547.2,531.3,547.2z"/>
		<path class="st8" d="M843.5,321.9c-39.4-7.4-57.6,27.9-83.2,85.6c-25.6,57.6-69.2,127.6-77.8,136.7c-8.7,9-146.2,0-146.2,0
			s-4.2,39.8,0,44.6c4.2,4.8,27.9,4.2,27.9,4.2s9.5,7.6,18.4,13.6c8.9,6,84.4,17.3,119.4,15.5c35.1-1.8,67.1-4.8,71.9-10.1
			c4.8-5.3,100.4-152.7,106.4-205.6C886.3,353.4,863.7,325.7,843.5,321.9z"/>
	</g>
</g>
<g id="Layer_4">
	<g>
		<path class="st2" d="M1178.7,462.2c-0.4,0-0.8-0.1-1.2-0.3c-1.2-0.6-1.6-2.1-1-3.3c25.7-46.9,4.7-103.8-5.8-119.2
			c-1.1-1.6-2.2-3.3-3.3-5c-10.4-16.2-23.3-36.3-92-48.7c-16.5-3-29.8-12.8-44-23.1c-29.3-21.5-62.6-45.9-134.8-12.7
			c-1.2,0.6-2.7,0-3.2-1.2c-0.6-1.2,0-2.7,1.2-3.2c74.8-34.4,109.3-9.1,139.7,13.2c13.7,10,26.6,19.5,41.9,22.3
			c70.8,12.7,84.4,33.9,95.2,50.8c1.1,1.7,2.1,3.3,3.2,4.9c6.4,9.3,14.2,28.5,17.4,50.5c2.8,19.1,3.1,47.4-11.3,73.8
			C1180.4,461.8,1179.5,462.2,1178.7,462.2z"/>
	</g>
</g>
<g id="Layer_3">
	<g>
		<path class="st2" d="M840.7,258c-4.9,0-10.1-0.4-15.8-1.3c-26-3.9-60.8-18.7-63.6-101.7c0-1.3,1-2.5,2.4-2.5
			c1.4-0.1,2.5,1,2.5,2.4c1.1,34.4,8,59.8,20.3,75.6c9.4,12,21.8,18.8,39.1,21.4c24.3,3.6,40.3-0.9,47.8-13.4
			c0.7-1.2,2.2-1.5,3.3-0.8c1.2,0.7,1.5,2.2,0.8,3.3C870.9,252.3,858.5,258,840.7,258z"/>
	</g>
</g>
<g id="Layer_13">
	<g>
		<path class="st9" d="M587,258.4c0.8-6.8,1.2-13.6,1.2-20.6c0-3.7-0.1-7.3-0.3-10.9l-34-11c-2.1-14.3-6.2-28-12-40.8l22.6-27.8
			c-5.2-9.2-11.2-17.9-17.9-26l-34,11.1c-9.9-10.1-21.3-18.9-33.7-25.9l1.9-35.8c-9.5-4.3-19.4-7.9-29.7-10.5l-21,29
			c-8.2-1.4-16.6-2.1-25.2-2.1c-5.9,0-11.6,0.3-17.3,1L368,58c-10.4,2.1-20.5,5.1-30.2,8.9l0,35.8c-12.8,6.4-24.6,14.5-35,24.1
			L269.4,114c-7.1,7.8-13.5,16.1-19.2,25l21.1,28.9c-6.5,12.4-11.4,25.9-14.2,40.1l-34.6,9.2c-0.8,6.8-1.2,13.6-1.2,20.6
			c0,3.7,0.1,7.3,0.3,10.9l34,11c2.1,14.3,6.2,28,12,40.8l-22.6,27.8c5.2,9.2,11.2,17.9,17.9,26l34-11.1
			c9.9,10.1,21.3,18.9,33.7,25.9l-1.9,35.8c9.5,4.3,19.4,7.9,29.7,10.5l21-29c8.2,1.4,16.6,2.1,25.2,2.1c5.9,0,11.6-0.3,17.3-1
			l19.5,30.1c10.4-2.1,20.5-5.1,30.2-8.9l0-35.8c12.8-6.4,24.6-14.5,35-24.1l33.4,12.9c7.1-7.8,13.5-16.1,19.2-25l-21.1-28.9
			c6.5-12.4,11.4-25.9,14.2-40.1L587,258.4z M404.8,309.7c-39.7,0-71.9-32.2-71.9-71.9c0-39.7,32.2-71.9,71.9-71.9
			c39.7,0,71.9,32.2,71.9,71.9C476.7,277.5,444.5,309.7,404.8,309.7z"/>
		<g>
			<path class="st10" d="M502.9,320.8c-0.8,0-1.7-0.3-2.4-0.9c-1.6-1.3-1.8-3.6-0.5-5.2c17.9-21.6,27.8-48.9,27.8-77
				c0-13.5-2.2-26.7-6.5-39.3c-0.7-1.9,0.4-4,2.3-4.7c1.9-0.7,4,0.4,4.7,2.3c4.6,13.4,6.9,27.4,6.9,41.7c0,29.8-10.5,58.8-29.5,81.7
				C505,320.4,504,320.8,502.9,320.8z"/>
		</g>
		<g>
			<path class="st10" d="M492.5,151c-0.9,0-1.8-0.3-2.5-1c-12-11.3-26-19.9-41.5-25.6c-1.9-0.7-2.9-2.8-2.2-4.7s2.8-2.9,4.7-2.2
				c16.4,6,31.2,15.1,44,27.1c1.5,1.4,1.6,3.7,0.2,5.2C494.4,150.6,493.5,151,492.5,151z"/>
		</g>
		<g>
			<path class="st10" d="M376.9,121c-1.7,0-3.2-1.1-3.6-2.8c-0.5-2,0.7-4,2.7-4.5c10.2-2.6,20.8-3.9,31.4-3.9c2,0,3.7,1.7,3.7,3.7
				s-1.7,3.7-3.7,3.7c-10,0-20,1.2-29.6,3.7C377.5,121,377.2,121,376.9,121z"/>
		</g>
	</g>
</g>
</svg>
