<?xml version="1.0" encoding="utf-8"?>
<!-- Generator: Adobe Illustrator 21.1.0, SVG Export Plug-In . SVG Version: 6.00 Build 0)  -->
<svg version="1.1" id="Layer_1" xmlns="http://www.w3.org/2000/svg" xmlns:xlink="http://www.w3.org/1999/xlink" x="0px" y="0px"
	 viewBox="0 0 26.8 23.7" style="enable-background:new 0 0 26.8 23.7;" xml:space="preserve">
<style type="text/css">
	.st0{fill:#FFFFFF;}
</style>
<title>dashboard</title>
<path class="st0" d="M1,11.4c0.1-0.3,0.3-0.5,0.6-0.7c3.2-3.2,6.5-6.5,9.7-9.7c1.2-1.2,3-1.2,4.2,0c3.3,3.3,6.5,6.6,9.8,9.9
	c0.3,0.3,0.5,0.6,0.4,1c-0.2,0.7-1,1-1.6,0.5c-0.3-0.2-0.5-0.5-0.7-0.8c0,0,0,0-0.1,0c0,0.1,0,0.2,0,0.2c0,1.1,0,2.2,0,3.2
	c0,0.4-0.3,0.8-0.7,0.9c-0.4,0.1-0.8,0-1.1-0.3c-0.2-0.2-0.2-0.4-0.2-0.7c0-1.7,0-3.4,0-5.1c0-0.2,0-0.3-0.2-0.4
	c-2.3-2.4-4.7-4.7-7-7.1c-0.5-0.5-1-0.5-1.5,0C10.3,4.7,7.9,7,5.5,9.4C5.4,9.5,5.4,9.6,5.4,9.8c0,3.3,0,6.6,0,9.9c0,1,0.6,1.7,1.5,2
	c0.2,0,0.4,0.1,0.6,0.1c0.7,0,1.4,0,2.1,0c0.2,0,0.2-0.1,0.2-0.2c0-2.5,0-5,0-7.5c0-0.8,0.4-1.1,1.1-1.1c1.7,0,3.3,0,5,0
	c0.8,0,1.1,0.4,1.1,1.1c0,2.5,0,5,0,7.5c0,0.2,0,0.2,0.2,0.2c0.8,0,1.5,0,2.3,0c0.9,0,1.8-0.8,1.8-1.8c0-0.1,0-0.2,0-0.3
	c0.1-0.5,0.6-0.8,1.1-0.8c0.5,0.1,0.8,0.5,0.8,1c0,1.7-1.2,3.3-2.9,3.7c-0.4,0.1-0.8,0.1-1.1,0.1c-1,0-2,0-3,0
	c-0.8,0-1.1-0.4-1.1-1.1c0-2.5,0-5,0-7.5c0-0.2,0-0.2-0.2-0.2c-1,0-1.9,0-2.9,0c-0.2,0-0.2,0-0.2,0.2c0,2.5,0,5,0,7.5
	c0,0.8-0.4,1.2-1.1,1.2c-1.2,0-2.4,0-3.6,0c-1.7-0.1-3.3-1.5-3.5-3.3c0-0.3,0-0.5,0-0.8c0-2.6,0-5.2,0-7.8c0-0.1,0-0.2,0-0.3
	C3.2,11.7,3,12,2.8,12.2c-0.6,0.6-1.5,0.3-1.7-0.4c0,0,0,0,0,0C1,11.6,1,11.5,1,11.4z"/>
</svg>
