<?xml version="1.0" encoding="utf-8"?>
<!-- Generator: Adobe Illustrator 21.1.0, SVG Export Plug-In . SVG Version: 6.00 Build 0)  -->
<svg version="1.1" id="Layer_1" xmlns="http://www.w3.org/2000/svg" xmlns:xlink="http://www.w3.org/1999/xlink" x="0px" y="0px"
	 viewBox="0 0 19 19.1" style="enable-background:new 0 0 19 19.1;" xml:space="preserve">
<style type="text/css">
	.st0{fill:#FFFFFF;}
</style>
<title>departemen</title>
<g>
	<path class="st0" d="M19,1.9C19,1.9,19,1.9,19,1.9c0,0.1,0,0.1,0,0.2C19,2,19,1.9,19,1.9z"/>
	<path class="st0" d="M9.2,11.8C9.2,11.8,9.2,11.8,9.2,11.8c0.1,0,0.1,0,0.2,0C9.4,11.9,9.3,11.9,9.2,11.8z"/>
	<path class="st0" d="M15.4,13.6C15.4,13.5,15.4,13.5,15.4,13.6c0.1,0,0.1,0,0.2,0C15.5,13.6,15.4,13.6,15.4,13.6z"/>
	<path class="st0" d="M16,13.5C16,13.5,16,13.5,16,13.5c-0.1,0-0.1,0-0.2,0C15.9,13.5,15.9,13.5,16,13.5z"/>
	<g>
		<path class="st0" d="M13.9,3.5c0.3,0,0.6-0.2,0.6-0.6c0-0.3-0.2-0.6-0.5-0.6c-0.3,0-0.6,0.2-0.6,0.5C13.4,3.2,13.6,3.5,13.9,3.5z"
			/>
		<path class="st0" d="M16.2,3.5c0.3,0,0.6-0.3,0.5-0.6c0-0.3-0.3-0.6-0.6-0.6c-0.3,0-0.6,0.2-0.6,0.5C15.6,3.3,15.9,3.5,16.2,3.5z"
			/>
		<path class="st0" d="M11.7,3.5c0.3,0,0.6-0.2,0.6-0.5c0-0.3-0.2-0.6-0.5-0.6c-0.3,0-0.6,0.2-0.6,0.5C11.2,3.2,11.4,3.5,11.7,3.5z"
			/>
		<path class="st0" d="M19,1.8c0-0.2,0-0.3-0.1-0.5c-0.2-0.6-0.9-1.2-1.8-1.2c-5,0-10.1,0-15.1,0c-0.2,0-0.3,0-0.5,0.1
			C0.8,0.4,0,1.1,0,2.1c0,5.5,0,11,0,16.4c0,0.4,0.1,0.5,0.4,0.6c6.1,0,12.1,0,18.2,0c0.2,0,0.4-0.2,0.4-0.4c0-5.5,0-11.1,0-16.6
			C19,2,19,1.9,19,1.8z M1.1,2.2c0-0.6,0.4-1,1-1c4.9,0,9.9,0,14.8,0c0.6,0,1,0.4,1,1c0,0.7,0,1.5,0,2.2c0,0.1,0,0.2-0.2,0.2
			c-2.7,0-5.5,0-8.2,0c-2.7,0-5.5,0-8.2,0c-0.2,0-0.2,0-0.2-0.2C1.1,3.7,1.1,3,1.1,2.2z M5.4,18c-0.7,0-1.4,0-2.1,0
			c-0.7,0-1.4,0-2.1,0c-0.1,0-0.2,0-0.2-0.1c0-0.7,0-1.5,0-2.2c0-0.6,0.4-1,1-1c0.8,0,1.7,0,2.5,0c0.6,0,1,0.4,1,1
			c0,0.7,0,1.5,0,2.2C5.6,18,5.6,18,5.4,18z M2.8,11.9c0-0.3,0.3-0.5,0.6-0.5c0.3,0,0.5,0.3,0.5,0.6c0,0.3-0.3,0.6-0.6,0.6
			C3.1,12.4,2.8,12.2,2.8,11.9z M12.1,18c-0.9,0-1.7,0-2.6,0c-0.9,0-1.7,0-2.6,0c-0.1,0-0.2,0-0.2-0.2c0-1.3,0-2.6,0-3.9
			c0-0.6,0.4-1,1-1c1.2,0,2.3,0,3.5,0c0.6,0,1,0.4,1,1c0,1.3,0,2.6,0,3.9C12.3,18,12.3,18,12.1,18z M8.7,9.9c0-0.5,0.4-0.8,0.8-0.8
			c0.5,0,0.8,0.4,0.8,0.8c0,0.5-0.4,0.8-0.8,0.8C9.1,10.7,8.7,10.4,8.7,9.9z M17.7,18c-0.7,0-1.4,0-2.1,0c-0.7,0-1.4,0-2.1,0
			c-0.1,0-0.2,0-0.2-0.1c0-0.7,0-1.5,0-2.2c0-0.6,0.4-1,1-1c0.8,0,1.7,0,2.5,0c0.6,0,1,0.4,1,1c0,0.7,0,1.5,0,2.2
			C17.9,18,17.9,18,17.7,18z M15.1,11.9c0-0.3,0.3-0.6,0.6-0.5c0.3,0,0.6,0.3,0.6,0.6c0,0.3-0.2,0.6-0.5,0.6
			C15.4,12.5,15.1,12.2,15.1,11.9z M17.9,13.7c0,0,0,0.1,0,0.1c-0.6-0.3-1.3-0.2-1.9-0.2c0,0,0,0,0,0c0,0,0,0,0,0
			c0.8-0.1,1.4-0.9,1.4-1.7c0-0.8-0.7-1.5-1.5-1.6c-0.8-0.1-1.6,0.5-1.8,1.3c-0.2,0.9,0.4,1.8,1.3,2c0,0,0,0,0,0c0,0,0,0,0,0
			c-0.4,0-0.8,0-1.1,0c-0.3,0-0.6,0.1-0.8,0.2c0-0.2-0.1-0.5-0.2-0.7c-0.4-0.8-1-1.2-1.9-1.3c-0.5,0-1,0-1.6,0
			c0.2,0,0.3-0.1,0.5-0.2c0.9-0.4,1.3-1.3,1.1-2.2c-0.2-0.9-1-1.5-2-1.5C8.5,8,7.8,8.7,7.6,9.6c-0.2,1.1,0.6,2.1,1.6,2.2
			c0,0,0,0,0,0c0,0,0,0,0,0c-0.5,0-1,0-1.4,0c-1.2,0-2,0.7-2.2,1.8c0,0,0,0.1,0,0.1c-0.6-0.3-1.3-0.2-1.9-0.3c1-0.3,1.5-1,1.3-1.9
			c-0.1-0.8-0.8-1.4-1.6-1.5c-0.8,0-1.5,0.5-1.7,1.3c-0.2,0.9,0.2,1.6,1.2,2c-0.3,0-0.6,0-0.9,0c-0.3,0-0.6,0.1-0.9,0.2
			c0-0.1,0-0.1,0-0.2c0-2.6,0-5.1,0-7.7c0-0.2,0.1-0.2,0.2-0.2c5.5,0,10.9,0,16.4,0c0.1,0,0.2,0,0.2,0.1
			C17.9,8.5,17.9,11.1,17.9,13.7z"/>
	</g>
</g>
</svg>
