<?xml version="1.0" encoding="utf-8"?>
<!-- Generator: Adobe Illustrator 21.1.0, SVG Export Plug-In . SVG Version: 6.00 Build 0)  -->
<svg version="1.1" id="Layer_1" xmlns="http://www.w3.org/2000/svg" xmlns:xlink="http://www.w3.org/1999/xlink" x="0px" y="0px"
	 viewBox="0 0 19.2 16.4" style="enable-background:new 0 0 19.2 16.4;" xml:space="preserve">
<style type="text/css">
	.st0{fill:#FFFFFF;stroke:#FFFFFF;stroke-width:0.25;stroke-miterlimit:10;}
</style>
<title>jabatan</title>
<g>
	<path class="st0" d="M18.7,7.4c0-0.1,0-0.1,0-0.2C18.7,7.3,18.7,7.3,18.7,7.4C18.7,7.4,18.7,7.4,18.7,7.4z"/>
	<path class="st0" d="M9.6,16.1c-2.5,0-4.9,0-7.4,0c-0.5,0-1-0.2-1.2-0.7c-0.1-0.2-0.1-0.4-0.1-0.6c0-1.7,0-3.5,0-5.2
		c0-0.4,0.2-0.6,0.5-0.5c0.1,0,0.2,0.1,0.3,0.3c0,0.1,0,0.2,0,0.3c0,1.7,0,3.4,0,5.1c0,0.4,0.1,0.6,0.6,0.6c4.9,0,9.8,0,14.6,0
		c0.4,0,0.6-0.1,0.6-0.6c0-1.7,0-3.4,0-5.1c0-0.3,0.1-0.5,0.4-0.5c0.2,0,0.4,0.1,0.5,0.4c0,0.1,0,0.1,0,0.2c0,1.7,0,3.5,0,5.2
		c0,0.5-0.2,1-0.7,1.2c-0.2,0.1-0.4,0.1-0.7,0.1C14.5,16.1,12,16.1,9.6,16.1z"/>
	<path class="st0" d="M12.9,1.8c0,0.1,0,0.2,0,0.3c0,0.2-0.2,0.4-0.4,0.4c-0.2,0-0.4-0.2-0.4-0.4c0-0.1,0-0.3,0-0.4
		c0-0.3-0.2-0.5-0.5-0.5c-1.4,0-2.7,0-4.1,0c-0.3,0-0.4,0.2-0.4,0.5c0,0.1,0,0.3,0,0.4c0,0.2-0.2,0.3-0.4,0.3
		c-0.2,0-0.4-0.1-0.4-0.3C6.2,1.7,6.2,1.3,6.5,0.9c0.3-0.3,0.6-0.5,1-0.5c0.8,0,1.6,0,2.4,0c0.5,0,1,0,1.5,0
		C12.4,0.4,12.9,0.9,12.9,1.8z"/>
	<path class="st0" d="M18.7,4.3c-0.1-0.2-0.1-0.4-0.2-0.5c-0.3-0.4-0.7-0.5-1.2-0.5c-4.3,0-8.7,0-13,0c-0.8,0-1.7,0-2.5,0
		C1,3.3,0.5,3.8,0.5,4.6c0,0.9,0,1.7,0,2.6c0,0.6,0.4,1,0.9,1.2c0.2,0.1,0.5,0.1,0.7,0.2C4,9,5.9,9.4,7.8,9.8c0.1,0,0.2,0.1,0.2,0.2
		c0,0.4,0,0.7,0,1.1c0,0.4,0.1,0.5,0.5,0.5c0.8,0,1.5,0,2.3,0c0.4,0,0.5-0.1,0.5-0.5c0-0.4,0-0.7,0-1.1c0-0.1,0-0.2,0.2-0.2
		c2.1-0.5,4.2-0.9,6.3-1.4c0.5-0.1,0.9-0.4,1-1c0-0.1,0-0.1,0-0.2C18.7,6.3,18.7,5.3,18.7,4.3z M10.3,10.8c-0.5,0-0.9,0-1.4,0
		c-0.1,0-0.1,0-0.1-0.1c0-0.5,0-0.9,0-1.4c0-0.1,0-0.1,0.1-0.1c0.5,0,0.9,0,1.4,0c0.1,0,0.1,0,0.1,0.1c0,0.2,0,0.5,0,0.7
		c0,0.2,0,0.5,0,0.7C10.4,10.7,10.4,10.8,10.3,10.8z M17.9,7.2c0,0.3-0.1,0.4-0.4,0.5c-1.2,0.3-2.5,0.5-3.7,0.8
		C13,8.6,12.2,8.8,11.4,9c-0.1,0-0.2,0-0.2-0.1c0-0.4-0.1-0.6-0.6-0.6c-0.7,0-1.5,0-2.2,0c-0.4,0-0.5,0.1-0.5,0.5C7.9,9,7.9,9,7.7,9
		c-2-0.4-4-0.9-6-1.3C1.4,7.5,1.3,7.4,1.3,7.1c0-0.8,0-1.6,0-2.4c0-0.4,0.1-0.5,0.5-0.5c2.6,0,5.2,0,7.8,0c2.6,0,5.1,0,7.7,0
		c0.1,0,0.2,0,0.3,0c0.2,0,0.3,0.2,0.3,0.4C17.9,5.4,17.9,6.3,17.9,7.2z"/>
</g>
</svg>
