<?xml version="1.0" encoding="utf-8"?>
<!-- Generator: Adobe Illustrator 21.1.0, SVG Export Plug-In . SVG Version: 6.00 Build 0)  -->
<svg version="1.1" id="Layer_1" xmlns="http://www.w3.org/2000/svg" xmlns:xlink="http://www.w3.org/1999/xlink" x="0px" y="0px"
	 viewBox="0 0 24.9 24.9" style="enable-background:new 0 0 24.9 24.9;" xml:space="preserve">
<style type="text/css">
	.st0{fill:#FFFFFF;}
</style>
<title>karyawan</title>
<path class="st0" d="M24.8,21.4c-0.1-0.6-0.6-0.9-1.1-0.8c-0.5,0.1-0.9,0.6-0.8,1.1c0,0.1,0,0.3,0,0.4c-0.1,0.5-0.5,0.8-1.1,0.8
	c-6.2,0-12.4,0-18.7,0c-0.1,0-0.2,0-0.3,0c-0.6-0.1-1-0.6-0.9-1.2c0.5-2.1,1.4-3.9,3-5.4c2.6-2.5,5.7-3.5,9.3-2.9
	c2.1,0.3,4,1.3,5.5,2.8c0.6,0.6,1.1,1.2,1.6,1.8c0.3,0.5,0.9,0.5,1.4,0.2c0.4-0.3,0.5-0.9,0.2-1.4c-0.1-0.2-0.2-0.3-0.4-0.5
	c-1.4-1.9-3.3-3.3-5.5-4.2c-0.2-0.1-0.4-0.2-0.6-0.2c3.4-2.7,3.3-7.4,0.7-10c-2.6-2.6-6.8-2.6-9.4,0C5.1,4.7,5,9.3,8.5,12
	C8.4,12,8.3,12,8.3,12c-4,1.5-6.6,4.2-7.9,8.3c-0.2,0.5-0.3,1-0.3,1.5c-0.1,1.7,1.2,3.1,3,3.1c6.3,0,12.6,0,18.9,0
	C23.8,24.9,25.1,23.3,24.8,21.4z M7.8,6.7C7.8,4.1,9.9,2,12.4,2c2.6,0,4.7,2.1,4.7,4.7c0,2.6-2.1,4.7-4.8,4.6
	C9.8,11.3,7.8,9.2,7.8,6.7z"/>
</svg>
