<?xml version="1.0" encoding="utf-8"?>
<!-- Generator: Adobe Illustrator 21.1.0, SVG Export Plug-In . SVG Version: 6.00 Build 0)  -->
<svg version="1.1" id="Layer_1" xmlns="http://www.w3.org/2000/svg" xmlns:xlink="http://www.w3.org/1999/xlink" x="0px" y="0px"
	 viewBox="0 0 512 512" style="enable-background:new 0 0 512 512;" xml:space="preserve">
<style type="text/css">
	.st0{fill:#FFFFFF;}
</style>
<path class="st0" d="M320.8,371.8h40v80c0,33.1-26.9,60-60,60H60c-33.1,0-60-26.9-60-60V60C0,26.9,26.9,0,60,0h240.9
	c33.1,0,60,26.9,60,60v80h-40V60c0-11-9-20-20-20H60c-11,0-20,9-20,20v391.8c0,11,9,20,20,20h240.9c11,0,20-9,20-20V371.8z
	 M417.8,161.6l-28.3,28.3l46,46H176.9v40h258.6l-46,46l28.3,28.3l94.2-94.2L417.8,161.6z"/>
</svg>
